<?xml version="1.0" standalone="no"?>
<!DOCTYPE svg PUBLIC "-//W3C//DTD SVG 1.1//EN" "http://www.w3.org/Graphics/SVG/1.1/DTD/svg11.dtd" >
<svg xmlns="http://www.w3.org/2000/svg">
<metadata>Generated by IcoMoon</metadata>
<defs>
<font id="icomoon" horiz-adv-x="1024">
<font-face units-per-em="1024" ascent="960" descent="-64" />
<missing-glyph horiz-adv-x="1024" />
<glyph unicode="&#x20;" horiz-adv-x="512" d="" />
<glyph unicode="&#xe900;" glyph-name="bellboy" d="M512 944.485c-126.697 0-254.728-58.151-254.728-87.723v-123.097c0 20.201 146.68 82.292 254.728 82.292s254.728-62.092 254.728-82.292v123.097c0 29.572-128.062 87.723-254.728 87.723zM766.728 669.339v30.689c0 20.201-146.68 82.292-254.728 82.292s-254.728-62.092-254.728-82.292v-30.689c0-11.636 7.013-21.876 17.687-28.61-4.189-28.176-0.528-55.761-0.528-55.761l0.062-0.093c-7.509-11.171-12.102-25.228-12.722-41.456-1.365-35.747 17.936-75.124 56.351-84.744 9.837-47.569 55.886-189.161 193.846-189.161 137.93 0 184.010 141.591 193.815 189.161 38.478 9.65 57.747 48.997 56.351 84.744-0.434 11.078-2.793 21.101-6.547 29.975 0.062 0 0.186 0 0.186 0 2.731 28.3 2.296 52.069-0.496 72.176 7.013 6.392 11.45 14.646 11.45 23.769zM691.138 488.153l-12.35-0.931-1.986-12.257c-0.31-2.11-35.809-173.894-164.802-173.894s-164.492 171.753-164.833 173.894l-1.986 12.257-12.35 0.931c-26.934 2.079-40.464 29.386-39.502 54.055 0.248 6.64 2.327 24.142 15.329 33.171 241.912 7.168 293.981 93.029 294.819 94.487 0.062 0 0.062 0 0.124-0.031 24.173-68.701 76.055-89.305 112.547-95.046 12.257-9.216 14.305-26.065 14.553-32.582 0.931-24.669-12.567-51.976-39.564-54.055zM494.53 244.472c-60.819 7.137-130.793 47.383-130.793 47.383-15.484 0-28.020-10.612-28.020-23.645v-37.423c0-12.133 83.223-63.891 158.813-71.339v85.023zM660.232 291.887c0 0-69.942-40.246-130.793-47.383v-85.023c75.652 7.447 158.844 59.206 158.844 71.339v37.454c0.031 13.002-12.598 23.614-28.051 23.614zM723.037 233.581v-0.186c0-18.618-115.712-103.145-211.037-103.145s-211.068 84.558-211.068 103.145v0.186c-86.419-22.373-222.642-76.862-222.642-142.739 0-86.792 0-139.326 0-139.326h867.421c0 0 0 52.534 0 139.326 0 65.877-136.254 120.367-222.673 142.739zM283.493 4.67c-24.39 0-44.125 19.766-44.125 44.125s19.735 44.125 44.125 44.125c24.359 0 44.125-19.766 44.125-44.125s-19.766-44.125-44.125-44.125zM647.882 43.148c0-8.657-7.106-15.763-15.763-15.763h-240.237c-8.72 0-15.763 7.106-15.763 15.763v11.202c0 8.657 7.075 15.763 15.763 15.763h240.237c8.657 0 15.763-7.106 15.763-15.763v-11.202zM740.476 4.67c-24.359 0-44.125 19.766-44.125 44.125s19.766 44.125 44.125 44.125 44.125-19.766 44.125-44.125-19.766-44.125-44.125-44.125z" />
<glyph unicode="&#xe901;" glyph-name="Tourism-Icons_baloon" d="M791.765 384.875c47.061 72.832 87.168 150.592 87.168 227.712 0 180.608-186.325 327.019-366.912 327.019s-366.955-146.411-366.955-327.019c0-77.12 40.427-154.816 87.403-227.712 44.821-69.483 162.88-264.704 162.88-264.704v-83.541c0-43.712 34.731-78.827 78.421-78.827h76.629c43.691 0 78.592 35.115 78.592 78.827v83.52c-0.021 0 121.109 200.256 162.773 264.725zM444.139 122.197l-96.107 156.053c51.413-32.939 108.011-53.163 164.075-53.163s112.64 20.352 164.053 53.269l-96.107-156.16h-135.915z" />
<glyph unicode="&#xe902;" glyph-name="Tourism-Icons_boat" d="M981.376 414.443c-4.715 8-12.395 13.739-21.397 15.957l-91.776 22.443-68.437 234.816c-23.616 80.96-96.469 138.325-180.757 142.016v49.835c0 31.872-26.389 58.027-58.219 58.027h-75.925c-31.829 0-58.219-26.155-58.219-58.027v-49.835c-84.267-3.691-157.12-61.056-180.779-142.016l-68.309-234.816-91.861-22.443c-9.003-2.219-16.704-7.957-21.397-15.957-4.757-7.957-5.995-17.536-3.563-26.453l69.099-253.867c17.771-65.344 70.827-115.072 137.173-128.597l218.496-44.565c12.309-2.539 24.832-3.627 37.312-3.627 12.523 0 25.045 1.088 37.333 3.584l218.496 44.565c66.325 13.547 119.403 63.275 137.195 128.597l69.077 253.867c2.432 8.96 1.195 18.539-3.541 26.496zM328.576 663.275c13.803 47.317 57.899 80.064 107.2 80.064h174.080c49.323 0 93.397-32.747 107.2-80.064l11.968-40.896-181.163 55.232c-8.192 2.496-16.619 3.904-25.067 3.904-8.405 0-16.832-1.365-25.024-3.84l-181.163-55.275 11.968 40.875zM338.837 155.477c-37.824 0-68.501 46.443-68.501 103.744s30.677 103.765 68.501 103.765c37.845 0 68.544-46.464 68.544-103.765s-30.699-103.744-68.544-103.744zM522.816 532.096c-13.952 0-27.925-1.771-41.6-5.099l-207.253-50.645 21.077 72.277 221.44 67.435c2.091 0.64 4.203 1.088 6.336 1.088 2.155 0 4.288-0.448 6.379-1.088l221.44-67.435 21.056-72.277-207.253 50.645c-13.675 3.328-27.648 5.099-41.621 5.099zM706.837 155.477c-37.845 0-68.544 46.443-68.544 103.744s30.677 103.765 68.544 103.765c37.824 0 68.501-46.464 68.501-103.765s-30.677-103.744-68.501-103.744z" />
<glyph unicode="&#xe903;" glyph-name="Tourism-Icons_bus" d="M934.613 846.293h-710.741c-30.165 0-56.405-20.928-63.509-50.219l-142.507-588.096c-4.715-19.477-0.256-40.341 12.117-56.085 12.395-15.723 31.317-25.237 51.349-25.237h40.149c1.472 83.115 69.568 150.272 153.024 150.272 83.435 0 151.531-67.136 153.024-150.272h166.016c1.493 83.115 69.589 150.272 153.045 150.272 83.435 0 151.531-67.136 153.024-150.272h35.008c36.053 0 65.856 29.696 65.856 65.749v587.968c-0.021 36.075-29.803 65.92-65.856 65.92zM212.715 461.675c-10.901 0-21.227 4.651-28.053 13.141-6.827 8.512-9.451 19.52-7.147 30.187l50.155 228.459c3.648 16.533 18.283 28.459 35.179 28.459h82.496v-300.245h-132.629zM409.856 461.675v300.245h214.656v-300.245h-214.656zM914.859 497.109c0-19.904-15.595-35.435-35.499-35.435h-190.336v300.245h190.336c19.904 0 35.499-16.555 35.499-36.48v-228.331zM363.179 124.309c0-48.978-39.705-88.683-88.683-88.683s-88.683 39.705-88.683 88.683c0 48.978 39.705 88.683 88.683 88.683s88.683-39.705 88.683-88.683zM835.264 124.309c0-48.978-39.705-88.683-88.683-88.683s-88.683 39.705-88.683 88.683c0 48.978 39.705 88.683 88.683 88.683s88.683-39.705 88.683-88.683z" />
<glyph unicode="&#xe904;" glyph-name="Tourism-Icons_bycicle" d="M785.963 556.395c-4.203 0-8.171-0.149-12.331-0.384l-15.424 83.541v93.781c0 37.291-30.741 67.477-68.032 67.477h-17.429c-17.621 0-31.915-14.080-31.915-31.68 0-17.621 14.293-31.68 31.915-31.68h17.429c2.112 0 3.712-2.005 3.712-4.096v-81.685h-349.995l10.752 42.901h94.741c23.509 0 42.539 18.923 42.539 42.411s-19.051 42.389-42.539 42.389h-233.941c-23.509 0-42.539-18.923-42.539-42.389 0-23.509 19.051-42.411 42.539-42.411h73.429l-34.901-139.179c-6.912 0.661-13.909 1.024-21.013 1.024-119.104 0-216.021-96.917-216.021-216.043s96.917-216.064 216.021-216.064c119.125 0 216.043 96.917 216.043 216.043 0 89.771-55.040 166.912-133.141 199.488l12.139 48.469h374.101c0.192-0.213 0.384-0.405 0.555-0.597l8.363-44.736c-82.283-30.549-141.077-109.845-141.077-202.624 0-119.125 96.917-216.043 216.021-216.043 119.125 0 216.043 96.917 216.043 216.043s-96.917 216.043-216.043 216.043zM385.195 340.352c0-83.947-68.288-152.235-152.235-152.235s-152.235 68.288-152.235 152.235 68.288 152.235 152.235 152.235c1.771 0 3.499-0.043 5.248-0.107l-27.093-108.053c-16.213-8.043-27.349-24.747-27.349-44.053 0-27.136 22.016-49.195 49.195-49.195s49.195 22.037 49.195 49.195c0 10.645-3.392 20.48-9.152 28.544l27.115 108.053c50.347-24.875 85.077-76.757 85.077-136.619zM785.963 188.117c-83.947 0-152.235 68.288-152.235 152.235 0 61.483 36.672 114.581 89.259 138.581l21.077-112.811c-4.608-7.509-7.296-16.341-7.296-25.771 0-27.136 22.016-49.195 49.195-49.195s49.195 22.037 49.195 49.195c0 20.288-12.288 37.717-29.845 45.227l-20.011 107.008c0.235 0 0.448 0 0.661 0 83.947 0 152.235-68.288 152.235-152.235s-68.309-152.235-152.235-152.235z" />
<glyph unicode="&#xe905;" glyph-name="Tourism-Icons_car" d="M1004.48 260.032l-41.621 236.288c-4.224 24-25.088 41.835-49.451 41.835h-27.989l-10.603 110.443c-11.371 118.379-109.632 207.637-228.544 207.637h-265.237c-118.912 0-217.173-89.28-228.544-207.637l-10.603-110.443h-27.968c-24.363 0-45.227-17.835-49.451-41.835l-41.621-236.117c-5.163-29.227 3.072-59.349 22.165-82.112 18.347-21.867 45.056-34.923 73.707-35.904v-39.189c0-55.509 44.587-99.989 100.075-99.989h31.595c55.488 0 100.459 44.48 100.459 99.989v38.699h325.611v-38.677c0-55.488 44.992-100.011 100.48-100.011h31.616c55.488 0 100.053 44.544 100.053 100.011v39.147c28.629 0.981 55.339 13.909 73.685 35.797 19.115 22.784 27.371 52.821 22.187 82.069zM206.827 232.576c-46.848 0-84.821 37.995-84.821 84.864s37.973 84.821 84.821 84.821 84.843-37.952 84.843-84.821-37.995-84.864-84.843-84.864zM227.947 538.176l9.813 102.101c7.125 74.219 68.736 130.069 143.296 130.069h15.061v-32.213c0-27.819 22.357-50.709 50.176-50.709h134.784c27.819 0 50.176 22.891 50.176 50.709v32.213h15.061c74.56 0 136.171-55.851 143.296-130.069l9.813-102.101h-571.477zM820.501 232.576c-46.848 0-84.821 37.995-84.821 84.864s37.973 84.821 84.821 84.821 84.821-37.952 84.821-84.821-37.973-84.864-84.821-84.864z" />
<glyph unicode="&#xe906;" glyph-name="Tourism-Icons_chopper" d="M977.131 751.104h-749.44c-14.123 0-25.557-11.52-25.557-25.621s11.435-25.6 25.557-25.6h349.184v-68.395c-101.632-7.829-184.832-56.128-216.64-121.109l-137.173-13.717c-16.683 35.051-52.48 59.328-93.803 59.328-57.259 0-103.829-46.571-103.829-103.787 0-57.259 46.571-103.829 103.829-103.829 41.344 0 77.12 24.299 93.803 59.349l137.131-13.717c26.965-55.040 91.093-98.005 171.584-114.645l71.296-76.8h-221.504c-18.816 0-34.069-15.211-34.069-34.027s15.253-34.027 34.069-34.027h408.768c70.464 0 127.744 57.152 127.744 127.573 0 18.816-15.253 33.984-34.069 33.984s-34.069-15.168-34.069-33.984c0-32.875-26.752-59.541-59.627-59.541h-117.632l-64.384 69.333c142.165 0.917 257.109 81.28 257.109 180.331 0 94.485-104.576 171.925-237.312 179.712v67.925h348.992c14.101 0 25.536 11.499 25.536 25.6s-11.392 25.664-25.493 25.664zM129.259 399.488c-29.077 0-52.736 23.637-52.736 52.736 0 29.056 23.637 52.715 52.736 52.715 13.781 0 26.368-5.333 35.776-14.059l-12.011-1.195c-19.243-1.941-33.899-18.133-33.899-37.461 0-19.349 14.656-35.541 33.899-37.461l12.032-1.216c-9.429-8.725-21.995-14.059-35.797-14.059zM824.128 458.581c0.619-4.011-0.533-7.979-3.179-11.051-2.624-3.093-6.485-4.715-10.517-4.715h-170.027c-21.632 0-39.147 17.259-39.147 38.891v102.229c0 3.797 1.536 7.424 4.288 10.027 2.752 2.645 6.443 4.011 10.219 3.84 108.992-5.227 196.651-64.299 208.363-139.221z" />
<glyph unicode="&#xe907;" glyph-name="Tourism-Icons_compass" d="M508.651 933.248c-269.141 0-487.317-218.155-487.317-487.317 0-269.099 218.176-487.296 487.317-487.296s487.317 218.197 487.317 487.296c0 269.163-218.176 487.317-487.317 487.317zM508.651 853.717c35.733 0 64.683-28.907 64.683-64.64s-28.949-64.683-64.683-64.683-64.683 28.949-64.683 64.683 28.949 64.64 64.683 64.64zM165.568 381.269c-35.712 0-64.661 28.928-64.704 64.661 0.043 35.733 28.992 64.704 64.704 64.704 35.733-0.021 64.661-28.971 64.661-64.704 0-35.712-28.928-64.661-64.661-64.661zM508.651 38.208c-35.733 0-64.683 28.928-64.683 64.64 0 35.733 28.949 64.683 64.683 64.683s64.683-28.949 64.683-64.683c0-35.712-28.949-64.64-64.683-64.64zM740.032 650.965l-148.416-265.344c-5.291-9.472-13.12-17.301-22.613-22.613l-265.365-148.373c-7.552-4.267-17.024-2.944-23.147 3.179-6.144 6.123-7.445 15.595-3.221 23.189l148.459 265.323c5.291 9.472 13.141 17.323 22.635 22.571l265.323 148.437c7.573 4.245 17.024 2.944 23.147-3.2s7.424-15.637 3.2-23.168zM851.755 381.269c-35.733 0-64.683 28.928-64.683 64.661s28.928 64.704 64.683 64.704c35.691-0.021 64.683-28.971 64.683-64.704-0.043-35.712-28.992-64.661-64.683-64.661zM573.333 445.931c0-35.723-28.959-64.683-64.683-64.683s-64.683 28.959-64.683 64.683c0 35.723 28.959 64.683 64.683 64.683s64.683-28.959 64.683-64.683z" />
<glyph unicode="&#xe908;" glyph-name="Tourism-Icons_golf-cart" d="M800.427 526.677v176c22.165 14.208 36.352 39.040 36.352 67.328v12.885c0 44.203-36.181 80.405-80.405 80.405h-505.429c-44.181 0-80.341-36.16-80.341-80.363v-12.907c0-39.424 28.757-72.213 66.283-78.763l-82.944-263.104h-0.491c-28.736 0-54.677-17.173-65.963-43.605l-52.608-123.456c27.413 26.901 64.96 43.499 106.304 43.499 82.219 0 149.397-65.685 151.787-147.371h253.013c2.389 81.685 69.568 147.371 151.787 147.371 64.832 0 120.299-40.811 142.037-98.112h106.624c28.8 0 52.139 23.339 52.139 52.117v215.936c0 28.8-23.36 52.139-52.139 52.139h-146.005zM726.528 526.677h-98.517v-98.517h-49.259v-112.683c0-19.371-15.723-35.093-35.115-35.093h-126.848c-19.371 0-35.093 15.701-35.093 35.093v112.683h-123.051l65.301 65.344 26.176-26.155 17.451 17.472-69.781 69.781-17.451-17.429 26.197-26.176-71.296-71.488 79.147 250.155h412.139v-162.987zM141.205 279.936c-70.251 0-127.189-56.96-127.189-127.189 0-70.251 56.939-127.211 127.189-127.211s127.189 56.96 127.189 127.211c0 70.229-56.939 127.189-127.189 127.189zM141.205 99.584c-29.312 0-53.163 23.851-53.163 53.163s23.851 53.141 53.163 53.141 53.141-23.829 53.141-53.141-23.829-53.163-53.141-53.163zM697.813 279.936c-70.229 0-127.189-56.96-127.189-127.189 0-70.251 56.96-127.211 127.189-127.211 70.251 0 127.211 56.96 127.211 127.211 0 70.229-56.96 127.189-127.211 127.189zM697.813 99.584c-29.312 0-53.141 23.851-53.141 53.163s23.829 53.141 53.141 53.141 53.163-23.829 53.163-53.141-23.851-53.163-53.163-53.163z" />
<glyph unicode="&#xe909;" glyph-name="Tourism-Icons_jet-ski" d="M377.216 623.701h-56.981l-213.355 36.672c-32.021 5.525-61.291-19.136-61.291-51.648v-104.661h380.373v70.891c0 26.923-21.845 48.747-48.747 48.747zM21.867 361.835v-1.173c0-64.981 63.787-117.333 142.507-117.333h693.781c78.699 0 142.315 52.352 142.315 117.333v1.173h-978.603zM440.405 665.003c5.973 0 11.968 2.219 16.576 6.72l42.432 41.301 23.488-24.149-54.635-48.619c-11.84-10.517-18.603-25.6-18.603-41.429v-118.464h-380.373v-94.805h879.275v43.712c0 107.2-110.699 194.453-240.533 194.453h-2.709l-97.216 97.365c-13.824 13.845-36.181 14.165-50.389 0.725l-0.277-0.256-25.173 25.877c3.755 8.576 2.219 18.987-4.736 26.112-7.211 7.403-18.048 9.109-26.944 5.035-8.96 5.056-20.523 3.947-28.267-3.627-7.381-7.189-9.088-18.005-5.035-26.88l-43.456-42.261c-9.408-9.152-9.621-24.213-0.469-33.6 4.651-4.8 10.859-7.211 17.045-7.211z" />
<glyph unicode="&#xe90a;" glyph-name="Tourism-Icons_lift" d="M784.917 489.173h-254.571c-77.675 0-139.904-63.616-139.904-141.355v-332.203c0-34.816 27.456-62.976 62.229-62.976h409.92c34.773 0 62.699 28.16 62.699 62.976v332.203c0.021 77.717-62.677 141.355-140.373 141.355zM828.672 253.461c0-24.448-19.797-44.203-44.224-44.203h-254.805c-24.448 0-44.245 19.776-44.245 44.203v98.197c0 24.405 19.819 44.203 44.245 44.203h254.784c24.427 0 44.224-19.819 44.224-44.203v-98.197zM622.059 595.797h-146.603c-23.659 0-42.859-19.648-42.859-43.307 0-23.68 19.2-43.307 42.859-43.307h364.395c23.68 0 42.859 19.627 42.859 43.307 0 23.659-19.179 43.307-42.859 43.307h-132.821v195.861l111.125 48.299c27.115 11.819 39.573 43.371 27.755 70.507-11.776 27.136-43.307 39.552-70.485 27.797l-724.565-314.837c-27.136-11.84-39.573-43.392-27.797-70.528 8.789-20.181 28.48-32.277 49.195-32.277 7.125 0 14.379 1.408 21.333 4.459l528.469 229.675v-158.955z" />
<glyph unicode="&#xe90b;" glyph-name="Tourism-Icons_locomotive" d="M878.123 425.941v175.339c0 28.203-22.869 51.093-51.093 51.093s-51.093-22.869-51.093-51.093v-173.717h-183.915v86.891c0 87.317-71.040 158.336-158.336 158.336h-372.949c-16.939 0-30.656-13.739-30.656-30.677 0-16.917 13.717-30.656 30.656-30.656h61.291v-408.704h-61.291c-16.939 0-30.656-13.739-30.656-30.656s13.717-30.656 30.656-30.656h796.971c78.997 0 143.040 64.043 143.040 143.040 0 72.085-53.312 131.52-122.624 141.461zM183.339 611.477h250.368c53.504 0 97.024-43.52 97.024-97.024v-86.891h-347.392v183.915zM471.979 800.491c3.861 0 7.595 0.448 11.243 1.152-0.469-3.328-1.024-6.677-1.024-10.133 0-38.805 31.467-70.272 70.293-70.272 19.968 0 37.867 8.405 50.667 21.76-0.384-2.965-0.896-5.845-0.896-8.917 0-39.488 32.021-71.531 71.531-71.531 25.941 0 48.427 13.931 60.949 34.581 8.384-6.549 18.773-10.581 30.229-10.581 27.243 0 49.323 22.059 49.323 49.323 0 6.955-1.472 13.568-4.075 19.584 16.512 14.955 27.072 36.331 27.072 60.373 0 45.141-36.608 81.728-81.749 81.728-18.56 0-35.477-6.421-49.195-16.832-12.288 22.123-35.605 37.269-62.699 37.269-18.517 0-35.243-7.189-48-18.667-7.296 11.2-19.883 18.667-34.24 18.667-18.453 0-33.856-12.309-38.955-29.099-10.219 17.344-28.885 29.099-50.453 29.099-32.448 0-58.752-26.283-58.752-58.752-0.021-32.427 26.283-58.752 58.731-58.752zM344.256 45.696c0-37.385-30.306-67.691-67.691-67.691s-67.691 30.306-67.691 67.691c0 37.385 30.306 67.691 67.691 67.691s67.691-30.306 67.691-67.691zM528.171 45.696c0-37.385-30.306-67.691-67.691-67.691s-67.691 30.306-67.691 67.691c0 37.385 30.306 67.691 67.691 67.691s67.691-30.306 67.691-67.691zM712.107 45.696c0-37.385-30.306-67.691-67.691-67.691s-67.691 30.306-67.691 67.691c0 37.385 30.306 67.691 67.691 67.691s67.691-30.306 67.691-67.691zM896 45.696c0-37.385-30.306-67.691-67.691-67.691s-67.691 30.306-67.691 67.691c0 37.385 30.306 67.691 67.691 67.691s67.691-30.306 67.691-67.691z" />
<glyph unicode="&#xe90c;" glyph-name="Tourism-Icons_navigation" d="M834.859 217.344c46.592 64.192 74.112 143.061 74.112 228.267s-27.52 164.117-74.112 228.309l33.173 33.195c24.064 24.043 24.064 63.083 0 87.147-24.064 24.043-62.784 24.043-86.827 0l-33.28-33.344c-48.277 35.115-104.875 59.371-166.229 69.291v46.827c0 34.048-27.136 61.632-61.184 61.632-34.027 0-61.163-27.584-61.163-61.632v-46.485c-61.909-9.6-119.040-33.856-167.723-69.077l-32.917 32.789c-24.064 24.043-63.488 24.043-87.552 0-24.064-24.064-24.277-63.104-0.192-87.147l33.045-33.067c-46.635-64.256-74.197-143.189-74.197-228.437 0-85.227 27.541-164.139 74.155-228.331l-33.152-33.152c-24.085-24.043-24.085-63.083-0.021-87.147 12.032-12.032 27.797-18.069 43.563-18.069 15.787 0 32.341 6.016 44.373 18.069l32.896 32.768c48.704-35.2 105.813-59.456 167.723-69.077v-46.485c0-34.069 27.136-61.653 61.163-61.653 34.048 0 61.184 27.584 61.184 61.653v46.827c61.355 9.92 117.952 34.219 166.229 69.269l33.28-33.323c12.011-12.032 27.627-18.069 43.392-18.069 15.787 0 31.488 6.016 43.499 18.069 24.064 24.064 24.043 63.104-0.043 87.147l-33.195 33.237zM785.707 445.632c0-51.115-14.507-98.944-39.595-139.541l-74.987 74.965c8.469 19.861 13.184 41.664 13.184 64.576 0 22.891-4.693 44.736-13.184 64.555l74.987 74.987c25.067-40.597 39.595-88.405 39.595-139.541zM602.112 445.632c0-45.696-37.035-82.752-82.731-82.752s-82.731 37.056-82.731 82.752c0 45.717 37.035 82.731 82.731 82.731s82.731-37.035 82.731-82.731zM659.264 672.107l-74.837-74.987c-0.896 0.405-1.813 0.789-2.731 1.152v106.219c27.776-6.677 53.909-17.685 77.568-32.384zM459.349 705.024v-105.856c-1.152-0.469-2.304-0.896-3.435-1.365l-75.307 75.051c24.021 14.677 50.539 25.643 78.741 32.171zM253.077 445.632c0 51.157 14.549 99.008 39.659 139.648l74.965-74.987c-8.512-19.883-13.227-41.707-13.227-64.661 0-22.933 4.715-44.8 13.205-64.64l-74.987-74.965c-25.088 40.619-39.616 88.427-39.616 139.605zM380.608 218.411l75.285 75.029c1.131-0.469 2.283-0.939 3.435-1.344v-105.877c-28.181 6.507-54.699 17.493-78.72 32.192zM581.696 186.752v106.219c0.917 0.405 1.835 0.747 2.752 1.152l74.816-74.987c-23.659-14.677-49.792-25.728-77.568-32.384z" />
<glyph unicode="&#xe90d;" glyph-name="Tourism-Icons_overground" d="M611.968 792.448h-91.115v83.541h201.963c11.733 0 21.291-9.835 21.291-21.589 0-17.621 14.293-32.064 31.936-32.064s31.936 13.909 31.936 31.552c0 46.976-38.208 84.779-85.163 84.779h-468.309c-46.955 0-85.141-37.867-85.141-84.843 0-17.621 14.293-31.787 31.936-31.787s31.936 14.677 31.936 32.32c0 11.733 9.557 21.653 21.291 21.653h202.453v-83.563h-90.816c-104.107 0-188.096-84.373-188.096-188.501v-384.853c0-42.773 30.784-78.336 71.552-85.227l-60.971-116.821c-10.88-20.843-2.795-46.571 18.048-57.451 6.272-3.264 13.013-4.821 19.648-4.821 15.36 0 30.187 8.32 37.781 22.848l12.907 24.747h423.296l12.885-24.725c7.595-14.571 22.421-22.869 37.781-22.869 6.656 0 13.376 1.536 19.669 4.821 20.843 10.901 28.928 36.629 18.048 57.429l-60.949 116.843c40.853 6.869 72.021 42.432 72.021 85.227v385.621c0 103.701-84.139 187.733-187.819 187.733zM663.019 211.2c-34.709 0-62.848 28.139-62.848 62.827 0 34.731 28.117 62.848 62.848 62.848 34.688 0 62.827-28.117 62.827-62.848 0-34.667-28.139-62.827-62.827-62.827zM252.992 579.584c0 65.493 53.163 118.251 118.656 118.251h234.048c65.493 0 119.125-52.757 119.125-118.251v-103.68c0-22.955-19.179-41.003-42.176-41.003h-387.968c-22.997 0-41.685 18.048-41.685 41.003v103.68zM314.304 336.896c34.709 0 62.848-28.117 62.848-62.848 0-34.688-28.117-62.827-62.848-62.827-34.688 0-62.827 28.139-62.827 62.827 0 34.731 28.117 62.848 62.827 62.848zM310.379 66.261l34.624 66.347h287.36l34.624-66.347h-356.608z" />
<glyph unicode="&#xe90e;" glyph-name="Tourism-Icons_plane" d="M803.883 706.347c17.024 4.864 28.779 20.203 28.779 37.952 0 21.739-17.621 39.104-39.36 39.104h-168.747c16-32.981 32.64-72.277 48.768-114.539l130.56 37.483zM214.421 706.368l130.539-37.547c16.128 42.261 32.789 81.621 48.768 114.603h-168.747c-21.739 0-39.36-17.301-39.36-39.040 0.021-17.728 11.776-33.152 28.8-38.016zM990.4 481.664c-4.544 4.459-10.624 6.955-16.96 6.891l-282.837-1.899c-38.912 129.899-98.347 284.992-138.496 339.797-10.027 13.696-26.005 21.781-42.965 21.781s-32.939-8.085-42.944-21.781c-40.171-54.805-99.627-209.941-138.539-339.861l-282.88 2.005c-6.357 0.043-12.16-2.453-16.683-6.912-4.523-4.48-6.763-10.56-6.763-16.896v-14.464c0-23.424 12.821-44.885 33.664-55.595l235.989-121.259c15.744-114.56 107.413-240.832 218.24-240.832 111.019 0 202.795 126.677 218.325 241.344l236.587 120.576c20.48 10.816 33.216 32.107 33.216 55.275v14.869c0 6.379-2.432 12.48-6.955 16.96zM621.312 262.4c-5.227-7.915-14.059-12.352-23.552-12.352h-177.045c-9.472 0-18.325 4.437-23.552 12.373-5.205 7.915-6.101 17.771-2.368 26.475l25.067 58.325c4.437 10.368 14.635 16.939 25.92 16.939h126.933c11.264 0 21.483-6.656 25.92-17.024l25.067-58.283c3.733-8.725 2.837-18.539-2.389-26.453z" />
<glyph unicode="&#xe90f;" glyph-name="Tourism-Icons_rocket" d="M767.488 241.493l-89.131 51.947 42.219 265.963c14.528 91.477-0.448 187.413-40.683 260.885-40.213 73.429-101.291 116.245-165.867 116.245-64.597 0-125.696-42.816-165.888-116.245-40.213-73.451-55.189-169.387-40.64-260.885l42.176-265.429-89.088-51.925c-10.24-5.952-16.64-16.917-16.64-28.8v-145.045c0-11.947 6.507-22.976 16.853-28.907 10.325-5.952 23.125-5.888 33.451 0.107l100.352 58.517h237.867l101.269-59.072c10.325-6.016 23.211-6.059 33.557-0.128s16.875 16.981 16.875 28.907v145.067c0 11.861-6.443 22.827-16.683 28.8zM514.027 753.237c26.539 0 48.064-21.525 48.064-48.064s-21.525-48.085-48.064-48.085-48.085 21.547-48.085 48.085 21.547 48.064 48.085 48.064zM514.027 422.101c-41.173 0-74.517 33.365-74.517 74.539 0 41.152 33.344 74.496 74.517 74.496 41.152 0 74.517-33.344 74.517-74.496s-33.387-74.539-74.517-74.539zM406.869 8.021c0-24.96 19.797-45.717 44.757-45.717h124.757c24.96 0 44.843 20.757 44.843 45.717v40.683h-214.357v-40.683z" />
<glyph unicode="&#xe910;" glyph-name="Tourism-Icons_roller-skate" d="M879.125 232.704c-54.315 0-100.139-37.013-113.899-86.955h-19.669c-13.76 49.941-59.584 86.827-113.877 86.827-54.315 0-100.16-36.885-113.899-86.827h-15.317c-13.76 49.941-59.584 86.827-113.877 86.827-54.315 0-100.16-36.885-113.899-86.827h-15.317c-13.76 49.941-59.605 86.955-113.899 86.955-65.131 0-118.101-52.885-118.101-118.037 0-65.109 52.971-117.952 118.101-117.952 54.293 0 100.139 36.949 113.899 86.912h15.317c13.76-49.963 59.584-86.805 113.899-86.805 54.293 0 100.117 36.864 113.877 86.805h15.317c13.76-49.963 59.584-86.805 113.899-86.805 54.293 0 100.117 36.864 113.877 86.805h19.669c13.76-49.963 59.605-86.891 113.899-86.891 65.131 0 118.101 52.885 118.101 117.973 0 65.152-52.971 117.995-118.101 117.995zM173.397 83.627h17.963c-10.027-14.635-26.837-24.341-45.845-24.341-30.635 0-55.552 24.875-55.552 55.509s24.917 55.381 55.552 55.381c19.051 0 35.861-9.792 45.845-24.427h-17.963c-17.28 0-31.296-13.781-31.296-31.061s14.016-31.061 31.296-31.061zM388.608 59.371c-19.051 0-35.861 9.621-45.845 24.256h91.691c-10.027-14.635-26.859-24.256-45.845-24.256zM342.72 145.749c10.027 14.635 26.837 24.256 45.867 24.256s35.84-9.621 45.824-24.256h-91.691zM631.68 59.371c-19.051 0-35.861 9.621-45.845 24.256h91.691c-10.005-14.635-26.816-24.256-45.845-24.256zM585.813 145.749c10.027 14.635 26.837 24.256 45.867 24.256s35.84-9.621 45.845-24.256h-91.712zM879.125 59.285c-19.029 0-35.84 9.707-45.845 24.341h7.531c17.28 0 31.296 13.781 31.296 31.061s-14.016 31.061-31.296 31.061h-7.552c10.027 14.635 26.837 24.405 45.867 24.405 30.635 0 55.531-24.789 55.531-55.445 0-30.613-24.896-55.424-55.531-55.424zM303.915 398.869c-29.205 0-57.856 9.963-80.768 28.053l-117.099 98.581v-181.675c0-37.504 30.293-67.755 67.797-67.755h656.619c37.504 0 67.413 30.251 67.413 67.755v26.88c0 114.389-81.173 212.629-193.557 233.899l-139.819 26.453c-0.32-39.765-18.283-76.693-49.557-101.333l-130.219-102.805c-22.912-18.091-51.605-28.053-80.811-28.053zM501.952 854.635c0 37.504-30.272 68.331-67.776 68.331h-260.48c-37.504 0-67.648-30.827-67.648-68.331v-36.437h395.925v36.437zM131.755 578.859l130.197-102.805c12.309-9.728 27.136-14.613 42.027-14.613s29.739 4.885 42.048 14.613l130.197 102.805c16.32 12.885 25.771 32.512 25.771 53.291v123.904h-395.947v-123.925c0-20.757 9.387-40.405 25.707-53.269z" />
<glyph unicode="&#xe911;" glyph-name="Tourism-Icons_roller" d="M871.083 267.051l-41.707 188.907c-0.021 0.107-0.043 0.213-0.064 0.32l-77.781 352.299c-4.245 19.2-21.269 32.747-40.939 32.747h-119.872c-23.147 0-41.92-18.752-41.92-41.899s18.773-41.899 41.92-41.899h86.187l67.328-304.96-126.763-267.2-244.501-0.725c-10.837 103.531-98.603 184.469-204.949 184.469-17.344 0-31.445-14.080-31.445-31.445s14.080-31.445 31.445-31.445c71.701 0 131.243-52.928 141.611-121.792l-44.139-0.128c-17.365 48.597-63.893 83.477-118.421 83.477-69.312 0.043-125.739-56.341-125.739-125.675s56.427-125.739 125.739-125.739c54.741 0 101.419 35.157 118.656 84.117l378.453 1.195c16.149 0.043 30.805 9.365 37.739 23.936l91.819 193.579 15.723-71.232c-34.859-22.379-58.027-61.461-58.027-105.877 0-69.333 56.427-125.739 125.76-125.739s125.717 56.405 125.717 125.739c-0.043 64.64-49.045 118.016-111.829 124.971zM147.072 79.253c-34.645 0-62.848 28.203-62.848 62.848s28.203 62.827 62.848 62.827c18.517 0 35.179-8.043 46.699-20.843l-25.856-0.085c-23.189-0.085-41.899-18.859-41.813-42.005 0.085-23.083 18.837-41.728 41.92-41.728 0.043 0 0.085 0 0.128 0l25.771 0.043c-11.52-12.885-28.245-21.056-46.848-21.056zM857.173 79.253c-34.645 0-62.848 28.203-62.848 62.848 0 12.992 3.968 25.088 10.752 35.115l4.672-21.163c4.309-19.563 21.653-32.896 40.896-32.896 2.987 0 6.037 0.32 9.067 0.981 22.635 4.992 36.885 27.371 31.915 49.984l-5.205 23.595c19.968-10.539 33.6-31.509 33.6-55.595-0.021-34.667-28.203-62.869-62.848-62.869z" />
<glyph unicode="&#xe912;" glyph-name="Tourism-Icons_scateboard" d="M916.608 859.115l-2.88 2.859c-91.883 91.904-240.875 91.904-332.779 0l-476.949-476.949c-91.904-91.904-91.904-240.875 0-332.779l2.859-2.88c91.904-91.883 240.896-91.883 332.779 0l476.971 476.971c91.883 91.883 91.883 240.896 0 332.779zM877.163 565.781l-476.971-476.971c-69.973-69.952-183.467-70.421-253.419-0.448l-2.965 2.944c-69.952 69.973-69.504 183.467 0.469 253.44l476.971 476.971c69.952 69.973 183.445 70.421 253.419 0.469l2.965-2.987c69.952-69.952 69.504-183.445-0.469-253.419zM802.56 617.387c-8.704 8.704-22.827 8.704-31.531 0l-13.611-13.611-39.445 39.445 10.069 10.069-19.285 19.285-10.069-10.069-39.445 39.445 13.611 13.611c8.704 8.704 8.704 22.827 0 31.552l-28.053 28.032c-8.704 8.704-22.827 8.704-31.531 0l-67.499-67.477c-8.704-8.704-8.704-22.827 0-31.552l28.053-28.032c8.704-8.704 22.805-8.704 31.531 0l14.443 14.443 39.445-39.445-10.069-10.069 19.307-19.307 10.069 10.091 39.445-39.445-14.443-14.464c-8.704-8.683-8.704-22.805 0-31.531l28.053-28.032c8.704-8.704 22.827-8.704 31.531 0l67.477 67.477c8.704 8.704 8.704 22.827 0 31.552l-28.053 28.032zM447.595 262.464c-8.704 8.683-22.827 8.683-31.531 0l-14.443-14.464-39.445 39.445 10.069 10.091-19.307 19.285-10.069-10.069-39.445 39.445 14.443 14.443c8.704 8.704 8.704 22.827 0 31.531l-28.032 28.053c-8.704 8.704-22.827 8.704-31.531 0l-67.477-67.499c-8.704-8.704-8.704-22.805 0-31.531l28.032-28.032c8.704-8.704 22.827-8.704 31.531 0l13.611 13.611 39.445-39.445-10.069-10.091 19.307-19.285 10.069 10.069 39.445-39.445-13.611-13.611c-8.704-8.704-8.704-22.805 0-31.531l28.032-28.032c8.704-8.704 22.827-8.704 31.531 0l67.499 67.477c8.704 8.704 8.704 22.805 0 31.531l-28.053 28.053z" />
<glyph unicode="&#xe913;" glyph-name="Tourism-Icons_scooter" d="M499.2 308.608c-47.68 0-85.995-38.656-85.995-86.336v-172.693c0-47.68 38.315-86.336 85.995-86.336s85.973 38.656 85.973 86.336v172.693c0.021 47.68-38.293 86.336-85.973 86.336zM808.235 831.701h-163.989c-18.709 61.824-76.181 106.965-144.021 106.965s-125.333-45.141-144.021-106.965h-163.989c-23.595 0-42.752-19.371-42.752-42.987s19.157-43.008 42.752-43.008h163.648c0.021-0.107 0.043-0.213 0.085-0.299 10.795-36.352 34.965-66.987 66.773-86.165-116.203-33.493-201.344-140.565-201.344-267.499v-221.205c0-38.507 31.019-69.781 69.504-69.781h57.813v121.493c0 82.987 67.52 150.485 150.485 150.485s150.485-67.499 150.485-150.485v-121.493h58.517c38.507 0 70.485 31.296 70.485 69.781v221.227c0 126.827-85.013 233.835-201.088 267.413 31.872 19.2 56.107 49.856 66.901 86.251 0.021 0.085 0.043 0.192 0.085 0.299h163.648c23.616 0 42.752 19.371 42.752 43.008 0.021 23.595-19.115 42.965-42.731 42.965zM500.224 701.824c-47.68 0-86.336 38.677-86.336 86.357 0 47.659 38.656 86.336 86.336 86.336s86.336-38.677 86.336-86.336c0-47.68-38.656-86.357-86.336-86.357z" />
<glyph unicode="&#xe914;" glyph-name="Tourism-Icons_train" d="M166.315 20.416c-8.256-21.248 2.283-45.141 23.509-53.419 4.907-1.899 9.963-2.816 14.933-2.816 16.512 0 32.128 10.027 38.464 26.325l41.536 106.901-80.725 20.075-37.717-97.067zM310.272 792.619c0 8.64 6.272 16.405 14.592 18.816l139.819 40.597v-97.685l17.237 4.928c12.16 3.413 25.152 3.435 37.333 0.043l17.963-4.971v97.685l139.819-40.597c8.32-2.411 14.571-10.176 14.571-18.816v-81.173l60.843-17.301v98.475c0 36.011-24.299 68.16-58.859 78.251l-174.912 51.008c-5.568 1.621-13.611 3.093-18.176 3.093-4.949 0-12.672-1.451-18.219-3.093l-174.656-51.008c-34.581-10.091-58.197-42.24-58.197-78.251v-98.453l60.821 17.301v81.152zM219.861 269.952l280.683-46.421 280.917 46.421c20.779 3.435 36.459 21.419 36.459 42.475v282.517c0 22.677-15.552 42.581-37.397 48.661l-260.203 72.597c-12.949 3.605-26.667 3.605-39.616 0l-259.84-72.597c-21.845-6.080-36.907-26.005-36.907-48.661v-282.496c0-21.077 15.147-39.061 35.904-42.496zM500.224 627.093c86.549 0 156.693-70.144 156.693-156.672 0-86.571-70.144-156.715-156.693-156.715-86.528 0-156.672 70.144-156.672 156.715 0 86.507 70.144 156.672 156.672 156.672zM834.155 20.416l-37.717 97.088-80.747-20.075 41.536-106.901c6.336-16.32 21.952-26.325 38.464-26.325 4.971 0 10.027 0.917 14.933 2.816 21.248 8.256 31.765 32.149 23.531 53.397zM830.997 211.925l-7.296 32.597c-10.411-7.637-22.699-13.013-36.245-15.253l-276.672-45.995c-3.52-0.576-7.040-1.045-10.539-1.045s-7.019 0.448-10.539 1.045l-276.672 45.995c-13.547 2.219-25.835 7.595-36.245 15.253l-7.296-32.597c-5.12-22.784 8.917-45.525 31.616-51.157l281.707-69.44c11.563-2.859 23.637-2.859 35.221 0l281.344 69.44c22.677 5.632 36.693 28.352 31.616 51.157zM589.76 470.4c0-49.449-40.087-89.536-89.536-89.536s-89.536 40.087-89.536 89.536c0 49.449 40.087 89.536 89.536 89.536s89.536-40.087 89.536-89.536z" />
<glyph unicode="&#xe915;" glyph-name="Tourism-Icons_underground" d="M892.245 24.832l-141.931 260.437c40.064 7.104 70.187 41.813 70.187 84.011v383.040c0 103.019-83.051 186.347-186.048 186.347h-244.139c-103.424 0-187.691-83.691-187.691-187.115v-382.251c0-42.219 30.848-76.928 71.083-84.011l-141.952-260.459c-11.179-20.501-3.627-46.187 16.875-57.344 6.443-3.52 13.376-5.163 20.203-5.163 14.976 0 29.504 8.171 37.163 22.251l11.968 22.123h588.075l11.968-22.123c7.659-14.080 22.187-22.144 37.163-22.144 6.827 0 13.781 1.6 20.181 5.099 20.523 11.157 28.096 36.8 16.896 57.301zM690.816 217.557h-357.632l36.117 66.347h285.376l36.139-66.347zM685.163 361.451c-34.475 0-62.421 27.968-62.421 62.421 0 34.496 27.947 62.421 62.421 62.421s62.421-27.925 62.421-62.421c0-34.453-27.947-62.421-62.421-62.421zM277.824 727.381c0 65.067 52.885 118.4 117.931 118.4h232.469c65.067 0 118.528-53.333 118.528-118.4v-102.997c0-22.805-19.221-41.109-42.069-41.109h-385.365c-22.805 0-41.472 18.283-41.472 41.109v102.997zM338.816 486.293c34.475 0 62.421-27.925 62.421-62.421 0-34.453-27.947-62.421-62.421-62.421s-62.421 27.968-62.421 62.421c0 34.496 27.947 62.421 62.421 62.421zM252.544 70.101l46.080 84.032h426.752l46.080-84.032h-518.912z" />
<glyph unicode="&#xe916;" glyph-name="Tourism-Icons_vagon" d="M930.603 922.197h-671.488c-93.397 0-169.109-75.712-169.109-169.109 0-89.728 69.867-163.115 158.187-168.747l-83.733-251.2-80.96-14.123c-32.747-5.717-56.427-34.133-56.427-67.349v-85.525c0-32.491 22.336-60.011 52.629-67.051 4.821 86.037 76.331 154.581 163.563 154.581 87.829 0 159.723-69.483 163.648-156.352h127.253v380.949c0 34.987 28.181 63.061 63.147 63.061h147.989c34.965 0 63.829-28.075 63.829-63.061v-225.387c78.613-7.765 141.056-71.36 147.093-150.464 24.896 10.261 42.261 35.072 42.261 63.723v687.659c0 37.781-30.123 68.395-67.883 68.395zM449.664 382.677l-214.101-37.248 59.456 178.773h154.645v-141.525zM766.336 478.272c0 11.669-9.365 21.333-21.013 21.333h-147.989c-11.648 0-21.419-9.664-21.419-21.333v-380.928h53.333c3.52 77.931 61.76 141.845 137.109 154.197v226.731zM343.68 89.856c0-55.458-44.958-100.416-100.416-100.416s-100.416 44.958-100.416 100.416c0 55.458 44.958 100.416 100.416 100.416s100.416-44.958 100.416-100.416zM893.291 89.856c0-55.458-44.958-100.416-100.416-100.416s-100.416 44.958-100.416 100.416c0 55.458 44.958 100.416 100.416 100.416s100.416-44.958 100.416-100.416z" />
<glyph unicode="&#xe917;" glyph-name="Tourism-Icons_chicken" d="M904.405 872.853c-108.651 102.549-279.872 97.579-382.464-11.093-86.741-91.989-198.357-336.469-164.885-471.765l-150.827-159.829c-3.563 4.971-7.573 9.728-12.203 14.080-38.677 36.501-99.648 34.731-136.171-3.947-36.523-38.699-34.752-99.691 3.968-136.171 27.093-25.579 64.96-31.957 97.856-20.48-9.557-33.493-1.003-70.955 26.069-96.491 38.72-36.523 99.712-34.752 136.213 3.925 36.523 38.699 34.752 99.648-3.968 136.213-4.608 4.352-9.579 8.085-14.741 11.349l150.784 159.808c136.981-25.643 374.72 99.947 461.504 191.872 102.528 108.736 97.579 279.893-11.136 382.528z" />
<glyph unicode="&#xe918;" glyph-name="Tourism-Icons_coctail" d="M923.84 688.875c23.403 23.424 30.549 58.411 17.877 89.045-12.672 30.592-42.048 50.453-75.115 50.453h-56.491l53.525 52.949c12.821 12.693 12.885 33.323 0.192 46.123-12.715 12.779-33.365 12.992-46.208 0.277l-100.245-99.349h-559.616c-33.088 0-62.677-19.883-75.349-50.475-12.651-30.613-6.037-65.536 17.387-88.939l357.312-357.739v-265.259h-172.629c-30.059 0-54.443-24.256-54.443-54.315 0-30.080 24.384-54.336 54.443-54.336h455.381c30.059 0 54.421 24.256 54.421 54.336 0 30.059-24.363 54.315-54.421 54.315h-174.080v265.259l358.059 357.653zM629.589 741.461l-55.915-55.659c-34.923 12.352-79.787 1.856-113.749-29.888-45.312-42.347-53.995-106.731-19.413-143.68 34.581-36.971 99.307-32.619 144.619 9.749 36.032 33.685 48.853 81.472 35.2 118.144l101.973 101.355h130.965l-341.099-341.12-341.099 341.099h458.517z" />
<glyph unicode="&#xe919;" glyph-name="Tourism-Icons_coffee-beans" d="M380.523 545.301c51.84 83.989 124.437 147.392 205.653 181.419-71.189 133.355-198.165 213.653-319.957 203.84 54.912-62.4 103.424-167.509 111.381-344.939 0.619-13.888 1.664-27.264 2.923-40.32zM271.040 580.885c-8.747 195.072-70.72 276.181-119.936 309.931-118.976-78.891-164.8-258.304-101.291-430.251 48.597-131.584 148.715-224.747 256.533-253.589-6.955 50.475-6.059 103.851 4.139 157.803-21.227 60.821-35.691 132.096-39.445 216.107zM855.616 649.856c-49.216-33.749-111.189-114.859-119.936-309.931-7.957-177.344-62.912-298.923-130.795-382.059 8.533-0.875 17.109-1.451 25.685-1.451 132.437 0 267.328 103.488 326.315 263.211 63.531 171.925 17.707 351.339-101.269 430.229zM740.693 689.813c-6.763 0.555-13.547 0.875-20.331 0.875-132.437 0-267.307-103.467-326.293-263.189-63.616-172.245-17.515-351.915 101.867-430.635 66.411 67.413 125.461 175.445 133.184 347.797 7.979 177.643 56.597 282.795 111.573 345.152z" />
<glyph unicode="&#xe91a;" glyph-name="Tourism-Icons_coffee-machine" d="M128.875 218.624c16.085 0 31.296 3.883 44.757 10.645 24.384-71.829 92.608-123.541 172.715-123.541 100.565 0 182.293 81.515 182.293 182.101v109.845c0 30.315-25.024 55.509-55.339 55.509h-254.4c-25.685 0-47.232-17.963-53.227-41.771-11.413 4.544-23.808 6.891-36.821 6.891-54.997 0-99.755-44.8-99.755-99.84 0.021-54.976 44.779-99.84 99.776-99.84zM128.853 355.691c16.192 0 29.888-10.411 35.093-24.896v-24.789c-5.205-14.485-18.901-24.875-35.093-24.875-20.565 0-37.269 16.704-37.269 37.269s16.704 37.291 37.269 37.291zM909.12 721.344c49.899 7.701 88.021 50.773 88.021 102.805 0 57.515-46.72 104.064-104.235 104.064h-624.768c-57.515 0-104.149-46.315-104.149-103.829s46.635-103.808 104.149-103.808h35.968v-183.723c0-22.997 18.539-41.664 41.536-41.664s41.536 18.667 41.536 41.664v183.723h272.021l82.56-628.203h-645.632c-34.517 0-62.485-27.819-62.485-62.315s27.968-62.293 62.485-62.293h833.045c34.517 0 64.875 28.032 62.805 62.485-10.347 173.717-82.859 691.093-82.859 691.093z" />
<glyph unicode="&#xe91b;" glyph-name="Tourism-Icons_coffee-mug" d="M802.688 305.131c-62.805-95.104-170.645-157.995-292.885-157.995-122.261 0-230.101 62.891-292.907 157.995-118.741-24.597-195.563-63.723-195.563-107.819 0-74.389 218.688-134.72 488.469-134.72 269.76 0 488.448 60.331 488.448 134.72 0 44.096-76.821 83.221-195.563 107.819zM509.76 210.517c128.811 0 238.144 84.779 274.773 201.536 20.459-10.432 43.605-16.32 68.117-16.32 82.944 0 150.4 67.456 150.4 150.4s-67.456 150.421-150.4 150.421c-19.883 0-38.869-3.925-56.256-10.944-6.912 40.96-42.88 72.043-85.824 72.043h-401.536c-47.851 0-87.147-38.549-87.147-86.4v-173.397c0-158.699 129.152-287.339 287.872-287.339zM852.629 612.011c36.331 0 65.856-29.568 65.856-65.877s-29.547-65.877-65.856-65.877c-22.997 0-43.264 11.861-55.040 29.781v72.235c11.776 17.899 32.064 29.739 55.040 29.739z" />
<glyph unicode="&#xe91c;" glyph-name="Tourism-Icons_cupcake" d="M779.648 573.525c-16.896 43.2-45.909 80.469-82.773 107.691-22.165-57.365-77.909-98.219-143.019-98.219-65.408 0-121.344 41.152-143.339 98.923-37.013-27.264-66.005-64.789-83.072-108.395-73.813-16.491-128.789-82.368-128.789-161.173 0-91.221 74.048-165.163 165.248-165.163 28.501 0 55.445 7.552 78.848 20.267 33.152-17.344 70.976-27.392 110.763-27.392h1.237c39.808 0 77.248 10.048 110.4 27.392 23.424-12.736 50.112-20.096 78.613-20.096 91.221 0 164.992 73.856 164.992 165.077 0.021 78.763-55.296 144.576-129.109 161.088zM352.661 405.931c-15.552 0-28.181 12.608-28.181 28.181s12.651 28.203 28.181 28.203c15.595 0 28.203-12.629 28.203-28.203s-12.587-28.181-28.203-28.181zM421.077 504.981c-14.656 0-26.496 11.883-26.496 26.496 0 14.656 11.861 26.475 26.496 26.475s26.496-11.84 26.496-26.475c0-14.613-11.861-26.496-26.496-26.496zM553.92 355.925c-19.904 0-36.011 16.128-36.011 36.032s16.128 36.011 36.011 36.011c19.925 0 36.053-16.128 36.053-36.011 0-19.925-16.149-36.032-36.053-36.032zM686.571 504.981c-14.656 0-26.475 11.883-26.475 26.496 0 14.656 11.84 26.475 26.475 26.475 14.613 0 26.475-11.84 26.475-26.475 0-14.613-11.883-26.496-26.475-26.496zM754.987 405.931c-15.595 0-28.245 12.608-28.245 28.181s12.651 28.203 28.245 28.203c15.552 0 28.181-12.629 28.181-28.203s-12.629-28.181-28.181-28.181zM664.981 214.229c-34.24-14.4-71.787-22.507-111.168-22.784-39.36 0.299-76.885 8.405-111.147 22.784-24.363-9.685-50.901-15.040-78.677-15.040-21.931 0-43.115 3.328-63.040 9.515l48.981-149.803c19.307-59.008 74.325-98.645 136.427-98.645h134.933c62.080 0 117.099 39.637 136.384 98.645l49.024 149.803c-19.947-6.187-41.109-9.515-63.040-9.515-27.797 0-54.315 5.355-78.677 15.040zM551.403 760.448c-19.861 0-36.011 16.128-36.011 35.989 0 13.44-2.411 25.088-6.336 35.093-35.733-16.832-60.48-53.141-60.48-95.275 0-58.133 47.125-105.259 105.28-105.259s105.237 47.125 105.237 105.259c0 48.128-32.299 88.683-76.352 101.227 2.987-12.48 4.693-26.112 4.693-41.045-0.021-19.861-16.171-35.989-36.032-35.989zM449.984 912.171c0.875-0.235 89.429-24.213 89.429-115.733 0-6.635 5.376-12.011 11.989-12.011 6.656 0 12.011 5.376 12.011 12.011 0 109.888-106.347 138.688-107.392 138.965-6.549 1.643-12.949-2.219-14.656-8.597-1.685-6.4 2.197-12.971 8.619-14.635z" />
<glyph unicode="&#xe91d;" glyph-name="Tourism-Icons_dinner" d="M980.117 146.112l-272.896 274.603c-9.6-6.549-20.011-11.669-30.955-15.381-13.227-4.501-27.2-6.955-41.6-6.955-17.003 0-33.536 3.264-48.832 9.493l-86.997-92.629c11.648-8.725 25.771-13.824 40.597-14.4 19.947-0.683 39.275 6.912 53.397 21.013l1.344 1.344 271.531-288.981c10.496-11.157 25.024-17.6 40.363-17.856s30.059 5.76 40.896 16.576l33.173 33.152c10.603 10.603 16.576 25.003 16.576 40.021s-5.995 29.397-16.597 40zM331.456 505.92l81.856 76.885c-5.269 14.187-8 29.355-8 44.949 0 25.856 8.021 51.243 22.4 72.512l-171.477 177.003c-26.496 26.453-69.44 26.453-95.936 0-45.376-45.397-48-118.123-5.973-166.635l177.131-204.715zM586.688 479.509c13.269-13.248 30.635-19.861 47.979-19.861 17.365 0 34.731 6.613 47.979 19.861l215.339 215.317c8.085 8.085 8.085 21.205 0 29.312l-3.392 3.392c-3.883 3.883-9.152 6.037-14.656 6.037-5.483 0-10.752-2.176-14.656-6.037l-142.379-142.4c-6.059-6.016-14.272-9.429-22.827-9.429-8.576 0-16.789 3.413-22.848 9.472l-3.392 3.392c-12.608 12.587-12.608 33.045 0.021 45.653l142.379 142.357c8.085 8.107 8.085 21.227 0 29.312l-3.392 3.413c-3.904 3.883-9.173 6.059-14.656 6.059-5.504 0-10.773-2.197-14.656-6.059l-142.379-142.421c-6.037-6.059-14.251-9.429-22.805-9.429-8.576 0-16.789 3.371-22.848 9.429l-3.413 3.435c-6.059 6.037-9.472 14.272-9.472 22.827 0 8.533 3.413 16.747 9.472 22.805l142.379 142.379c3.904 3.925 6.080 9.152 6.080 14.677 0 5.504-2.176 10.773-6.080 14.677l-3.371 3.371c-4.032 4.032-9.344 6.080-14.656 6.080s-10.603-2.048-14.677-6.080l-215.317-215.317c-12.736-12.736-19.883-29.995-19.883-47.979s7.147-35.243 19.861-47.979l6.357-6.379-446.443-419.371c-11.157-10.475-17.6-25.067-17.835-40.341-0.235-15.317 5.739-30.059 16.555-40.896l31.915-35.904c10.624-10.603 25.003-20.544 40-20.544 0.299 0 0.576 0 0.896 0 15.296 0 29.888 10.645 40.363 21.803l419.392 450.453 9.067-9.088z" />
<glyph unicode="&#xe91e;" glyph-name="Tourism-Icons_fast-food" d="M172.053 428.096h633.451c9.301 0 17.963 4.864 23.083 12.608 5.099 7.765 5.973 17.685 2.283 26.219-57.216 132.501-188.608 225.387-342.123 225.387-43.584 0-85.376-7.488-124.203-21.227l-26.944 61.76c17.621 23.147 21.483 58.219 7.317 90.709-14.187 32.512-42.539 53.547-71.488 56.405l-16.811 38.528c-7.040 16.149-25.813 23.509-41.92 16.469-16.085-7.061-23.467-25.856-16.448-41.963l16.811-38.528c-17.6-23.147-21.461-58.24-7.275-90.731 14.165-32.491 42.517-53.525 71.467-56.363l27.328-62.635c-70.891-39.936-127.36-102.443-159.893-177.749-3.691-8.533-2.816-18.517 2.283-26.283 5.12-7.765 13.803-12.608 23.083-12.608zM664.832 590.763c15.637 0 28.309-12.672 28.309-28.288 0-15.637-12.672-28.331-28.309-28.331s-28.309 12.693-28.309 28.331c0 15.637 12.672 28.288 28.309 28.288zM555.136 550.080c12.715 0 22.997-10.283 22.997-22.997s-10.283-22.997-22.997-22.997c-12.715 0-23.019 10.283-23.019 22.997s10.304 22.997 23.019 22.997zM475.947 658.923c15.381 0 27.883-12.48 27.883-27.883 0-15.424-12.48-27.883-27.883-27.883-15.381 0-27.861 12.459-27.861 27.883 0 15.403 12.48 27.883 27.861 27.883zM315.584 560.405c21.653 0 39.211-17.557 39.211-39.232s-17.557-39.232-39.211-39.232c-21.675 0-39.232 17.557-39.232 39.232s17.579 39.232 39.232 39.232zM810.304 231.147h-642.944c-9.771 0-18.88-4.693-24-13.035s-5.547-18.581-1.109-27.285c61.248-120.683 204.928-147.947 346.581-147.947 141.611 0 285.333 27.371 346.603 148.053 4.437 8.725 3.989 18.795-1.131 27.115-5.141 8.341-14.208 13.099-24 13.099zM120.896 272.789h737.749c31.957 0 57.877 25.899 57.877 57.877v5.931c0 31.979-25.92 57.877-57.877 57.877h-737.749c-31.957 0-57.877-25.899-57.877-57.877v-5.931c0.021-31.979 25.92-57.877 57.877-57.877zM902.827 21.376h-828.096c-17.579 0-31.851-14.443-31.851-32.021s14.272-32.021 31.851-32.021h828.096c17.579 0 31.851 14.443 31.851 32.021s-14.272 32.021-31.851 32.021z" />
<glyph unicode="&#xe91f;" glyph-name="Tourism-Icons_grill" d="M644.757 279.936c-32.832-18.624-70.080-28.48-107.691-28.48-78.549 0-151.403 42.368-190.165 110.656-59.456 104.747-22.635 238.4 82.155 297.899 15.573 8.832 34.389 16.811 54.869 23.851-28.096 14.144-53.525 25.216-74.347 32.149-154.56 51.477-321.6-33.365-373.056-187.968-42.261-126.827 6.549-250.709 110.72-336.043h737.323c0 0 19.093 13.419 29.525 43.84 20.651 60.139-28.928 139.328-105.259 215.531-42.261-73.771-111.851-141.76-164.075-171.435zM991.36 674.069c-10.112 17.835-28.715 29.931-47.851 29.931-0.533 0-1.109 0-1.664 0 10.624 21.333 11.904 36.373 1.493 54.699-10.133 17.877-28.757 26.837-47.915 26.837-9.216 0-18.539-2.837-27.115-7.68-26.411-14.976-35.669-48.832-20.672-75.264 1.813-3.136 3.861-6.187 6.101-8.811l-109.013-61.995c-23.275 12.203-55.317 17.237-90.048 17.237-70.464 0-152-20.779-194.069-44.651-74.219-42.155-100.203-136.427-58.069-210.667 28.459-50.112 80.704-78.229 134.507-78.229 25.835 0 52.011 6.485 76.096 20.139 62.763 35.669 164.757 150.443 169.131 229.867l109.056 61.888c1.131-3.243 2.56-6.528 4.331-9.685 10.155-17.835 28.757-27.84 47.915-27.84 9.195 0 18.517 3.349 27.115 8.192 26.411 14.997 35.691 49.643 20.672 76.032zM830.677 128h-637.333c-29.461 0-53.333-23.872-53.333-53.333s23.872-53.333 53.333-53.333h637.333c29.461 0 53.333 23.872 53.333 53.333s-23.893 53.333-53.333 53.333z" />
<glyph unicode="&#xe920;" glyph-name="Tourism-Icons_hot-tea" d="M755.989 701.376l8.363 32.811c2.688 10.731 0.341 22.421-6.485 31.125-6.805 8.747-17.216 14.144-28.288 14.144h-125.675c-4.587 82.219-73.344 148.928-157.547 148.928-84.139 0-152.917-66.731-157.525-148.928h-177.365c-13.077 0-25.152-7.381-31.488-18.837-6.357-11.435-5.973-25.557 0.96-36.651l81.643-130.688-31.659-425.493c-3.691-49.365 13.547-98.581 47.211-134.848 33.707-36.288 81.408-57.173 130.944-57.173h277.269c49.493 0 97.216 20.864 130.923 57.173 33.685 36.245 50.901 85.589 47.232 134.976l-31.957 429.952h19.477c42.773 0 77.76-35.093 77.76-77.867v-188.011c0-28.693 22.848-51.947 51.52-51.947 28.693 0 51.541 23.253 51.541 51.947v188.011c-0.021 98.603-78.784 179.115-176.853 181.376zM219.925 244.48l25.771 346.027h404.011l25.771-346.027h-455.552zM361.515 437.12h166.165c17.216 0 31.147 14.080 31.147 31.275 0 17.237-13.931 31.317-31.147 31.317h-166.165c-17.237 0-31.168-14.080-31.168-31.317 0-17.195 13.952-31.275 31.168-31.275zM527.68 353.685h-166.165c-17.237 0-31.168-14.080-31.168-31.275 0-17.237 13.931-31.317 31.168-31.317h166.165c17.216 0 31.147 14.080 31.147 31.317 0 17.195-13.931 31.275-31.147 31.275z" />
<glyph unicode="&#xe921;" glyph-name="Tourism-Icons_ice-cream" d="M489.579-21.312c4.288-10.965 14.827-18.176 26.581-18.155 11.776 0.043 22.272 7.339 26.453 18.368l68.949 181.803-143.659-126.123 21.675-55.893zM556.416 438.165c-9.813 3.243-19.264 7.253-28.245 12.096l-165.12-144.981 24.832-64.128 210.603 184.917c-14.485 2.624-28.523 6.677-42.069 12.096zM372.757 422.421c-20.075 0-39.552 2.667-58.069 7.659l23.616-60.992 62.805 55.125c-9.323-1.173-18.816-1.792-28.352-1.792zM412.608 177.365l30.592-78.912 216.981 190.485 55.872 147.264c-4.544-1.643-9.131-3.157-13.781-4.565l-289.664-254.272zM703.403 793.899c-17.707 6.421-31.701 20.416-38.187 38.101-22.208 61.099-80.64 104.64-149.355 104.64-68.736 0-127.168-43.584-149.376-104.64-6.464-17.728-20.437-31.68-38.144-38.101-61.035-22.229-104.64-80.64-104.64-149.44 0-87.872 71.275-159.147 159.189-159.147 35.563 0 68.352 11.669 94.848 31.381 11.307 8.448 24.747 12.651 38.165 12.651 13.397 0 26.795-4.203 38.101-12.608 26.475-19.755 59.285-31.424 94.869-31.424 87.915 0 159.168 71.275 159.168 159.147-0.021 68.8-43.605 127.211-104.64 149.44z" />
<glyph unicode="&#xe922;" glyph-name="Tourism-Icons_knife" d="M914.88 915.115c-6.699 9.109-16.768 15.168-27.968 16.875-11.179 1.6-22.592-1.131-31.701-7.829l-579.648-427.008c-18.987-13.973-23.019-40.683-9.045-59.669l29.44-39.957-214.677-158.080c-65.323-48.107-78.037-141.739-29.931-207.061 48.107-65.301 141.291-80.939 206.635-32.811l214.635 158.123 29.461-40c8.363-11.349 21.291-17.344 34.389-17.344 8.789 0 17.664 2.709 25.28 8.32l259.861 191.424c195.264 143.829 237.099 419.733 93.269 615.019zM770.987 368.768l-225.515-166.101-184.96 251.093 508.907 374.891c87.040-153.813 47.339-352.512-98.432-459.883z" />
<glyph unicode="&#xe923;" glyph-name="Tourism-Icons_lemonade" d="M944.363 755.648c-11.52 84.309-79.701 152.789-163.989 164.544-111.403 15.552-208.128-64.427-220.032-169.728h-100.608l-30.315 151.744c-4.096 20.544-22.144 35.328-43.093 35.328h-261.76c-23.061 0-44.139-16.512-46.549-39.467-2.752-26.432 17.92-48.96 43.819-48.96h228.245l19.776-98.667h-42.645c-30.037 0-53.824-25.344-51.968-55.296l41.515-664.427c2.603-41.237 36.821-73.387 78.165-73.387h266.155c41.344 0 75.563 32.149 78.144 73.408l31.552 505.131c106.965 9.984 188.949 107.328 173.589 219.776zM383.808 369.92l-18.219 292.139h21.824l58.112-292.139h-61.717zM774.528 854.123c19.221-3.285 36.139-10.688 51.136-21.248l-51.136-51.115v72.363zM729.685 854.123v-72.384l-51.136 51.136c14.976 10.56 33.173 17.963 51.136 21.248zM648.363 801.6l51.136-51.136h-72.384c3.285 19.221 10.667 36.139 21.248 51.136zM672.192 369.92h-136.768l-58.112 292.139h213.077l-18.197-292.139zM774.997 603.115l4.224 67.605 46.443-46.464c-14.891-10.475-31.659-17.813-50.667-21.141zM856.981 655.787l-51.115 51.115h72.341c-3.264-19.221-10.667-36.117-21.227-51.115zM805.845 750.464l51.136 51.136c10.539-14.997 17.941-31.915 21.227-51.136h-72.363z" />
<glyph unicode="&#xe924;" glyph-name="Tourism-Icons_lunch" d="M469.611 108.992c12.971-1.472 26.155-2.24 39.509-2.24 14.976 0 29.76 0.939 44.245 2.816l6.528 208.683c-13.333 5.675-25.493 14.101-35.52 24.853-19.712 21.184-29.845 49.856-27.776 78.656l10.261 143.659c-12.16-17.472-29.76-30.891-50.304-37.781l13.056-418.645zM774.293 853.099v-91.051c87.787-74.901 142.464-185.899 142.464-309.568 0-123.691-54.677-234.709-142.464-309.611v-91.051c130.88 86.101 214.997 233.365 214.997 400.64 0 167.296-84.117 314.56-214.997 400.64zM525.291 884.565v-24.235c1.6-0.128 5.333-0.256 8.149-0.427 9.515 27.029 26.496 50.453 48.533 67.797-23.701 3.584-48.064 5.461-72.789 5.461-3.2 0-6.144-0.064-9.323-0.128 15.232-10.752 25.429-28.459 25.429-48.469zM774.293 673.451v-441.963c51.093 59.968 80.021 137.024 80.021 220.992s-28.949 161.024-80.021 220.971zM203.2 613.419c-25.387-48.107-39.808-102.848-39.808-160.917 0-91.861 35.989-175.424 94.592-237.397l9.792 313.685c-35.221 13.205-61.056 45.739-64.576 84.629zM551.189 39.552l0.213 6.955c-13.909-1.451-28.011-2.219-42.261-2.219-12.651 0-25.173 0.619-37.547 1.749l0.235-7.445c0.725-23.104-7.637-45.888-23.019-63.040 19.755-2.475 39.893-3.776 60.331-3.776 22.037 0 43.733 1.515 64.981 4.395-15.36 17.344-23.68 40.235-22.933 63.381zM100.992 452.501c0 103.147 38.016 197.461 101.845 269.376v101.056c-106.944-88.171-174.379-221.376-174.379-370.432 0-171.221 89.493-321.493 224.256-406.677l2.731 87.125c-94.037 74.88-154.453 190.293-154.453 319.552zM673.472 917.355v0c-56.171 0-102.805-43.008-106.795-99.072l-28.565-399.659c-1.259-17.365 4.8-34.816 16.704-47.595s28.587-20.309 46.037-20.309h1.707l-9.771-312.832c-0.427-13.419 4.608-26.389 13.931-36.053 9.344-9.621 22.165-15.019 35.563-15.019h41.045c27.349 0 49.472 22.528 49.472 49.877v822.101c0 32.789-26.539 58.56-59.328 58.56zM413.76 564.608h11.072c32.235 0 58.944 25.621 58.944 57.856v262.101c0 9.835-8.555 18.411-18.389 18.411h-4.139c-9.856 0-17.365-8.576-17.365-18.411v-173.291c0-15.36-12.907-28.565-28.245-28.565h-4.139c-15.339 0-28.267 13.205-28.267 28.565v173.291c0 9.835-7.509 18.411-17.344 18.411h-4.139c-9.835 0-18.432-8.576-18.432-18.411v-173.291c0-15.36-11.819-28.565-27.179-28.565h-4.117c-15.36 0-27.755 13.205-27.755 28.565v173.291c0 9.835-8 18.411-17.856 18.411h-4.139c-9.835 0-17.899-8.576-17.899-18.411v-262.101c0-32.235 26.219-57.856 58.453-57.856h7.723l-16.469-527.083c-0.405-13.141 4.523-26.197 13.717-35.691 9.173-9.429 21.781-15.040 34.965-15.040h38.805c13.163 0 25.771 5.611 34.965 15.083 9.173 9.451 14.123 22.507 13.696 35.669l-16.469 527.061z" />
<glyph unicode="&#xe925;" glyph-name="Tourism-Icons_pepper" d="M708.416 65.344h-48.299v361.024h-530.325v-361.024h-58.496c-29.333 0-53.099-23.552-53.099-52.907 0-29.312 23.765-52.885 53.099-52.885h637.12c29.333 0 53.099 23.573 53.099 52.885-0.021 29.355-23.787 52.907-53.099 52.907zM903.552 935.467c-46.805 0-84.779-38.144-84.779-84.907 0-0.235 0 0.32 0.021-0.853h-353.344c-62.912 0-114.603-50.816-114.603-113.707v-45.845c-76.437-11.2-142.4-54.464-184.981-114.432h-92.8c-29.312 0-53.077-24.171-53.077-53.504 0-29.312 23.765-53.504 53.077-53.504h637.12c29.333 0 53.099 24.192 53.099 53.504 0 29.333-23.765 53.504-53.099 53.504h-92.8c-41.771 58.816-106.603 101.568-180.693 113.771v46.528c0 16.064 12.693 29.035 28.757 29.035 0 0 328.533 0 438.059 0 37.483 0 84.779 38.997 84.779 85.803 0 46.763-37.952 84.608-84.736 84.608z" />
<glyph unicode="&#xe926;" glyph-name="Tourism-Icons_pot" d="M618.965 711.723c1.451 6.912 2.219 13.952 2.219 21.312 0 57.621-46.891 104.448-104.512 104.448-57.643 0-104.533-46.912-104.533-104.533 0-7.36 0.768-14.293 2.219-21.205-140.309-13.333-242.24-54.059-242.731-100.523h690.069c-0.469 46.464-102.443 87.168-242.731 100.501zM552.939 715.648c-11.925 0.405-24.021 0.576-36.288 0.576s-24.363-0.192-36.288-0.576c-2.496 5.227-3.904 11.093-3.904 17.28 0 22.144 18.027 40.192 40.192 40.192s40.192-18.048 40.192-40.192c0.021-6.208-1.387-12.053-3.904-17.28zM961.92 514.709h-100.629v45.205h-689.173v-45.205h-100.715c-29.611 0-53.611-24.149-53.611-53.781 0-29.611 24-53.76 53.611-53.76h100.715v-315.392c0-48.597 38.869-87.851 87.467-87.851h514.176c48.597 0 87.552 39.253 87.552 87.851v315.413h100.629c29.611 0 53.611 24.149 53.611 53.76-0.021 29.611-24.021 53.76-53.632 53.76zM307.755 111.019c0-17.771-14.613-32.192-32.384-32.192s-32.384 14.421-32.384 32.192v364.544c0 17.749 14.613 32.171 32.384 32.171s32.384-14.421 32.384-32.171v-364.544z" />
<glyph unicode="&#xe927;" glyph-name="Tourism-Icons_restaurant" d="M703.616 935.339c-58.411 0-107.072-45.163-111.211-103.403l-29.781-415.829c-1.301-18.133 4.949-36.096 17.344-49.408 12.395-13.291 29.717-20.992 47.872-20.992h1.749l-10.197-325.589c-0.448-13.931 4.8-27.029 14.507-37.013 9.685-10.027 23.019-15.253 36.971-15.253h42.688c28.437 0 52.117 22.379 52.117 50.837v854.912c0.021 34.091-27.968 61.739-62.059 61.739zM457.984 934.656h-4.352c-10.389 0-18.368-7.787-18.368-18.219v-183.253c0-16.256-13.632-29.547-29.867-29.547h-4.373c-16.235 0-29.995 13.291-29.995 29.547v183.253c0 10.411-7.829 18.219-18.24 18.219h-4.416c-10.411 0-18.688-7.787-18.688-18.219v-183.253c0-16.256-13.312-29.547-29.568-29.547h-4.352c-16.235 0-28.821 13.291-28.821 29.547v183.253c0 10.411-9.024 18.219-19.435 18.219h-4.373c-10.389 0-19.029-7.787-19.029-18.219v-277.184c0-34.091 27.797-61.056 61.888-61.056h8.235l-17.408-557.931c-0.448-13.931 4.779-27.115 14.485-37.12 9.685-10.005 23.040-15.317 36.992-15.317h41.045c13.909 0 27.264 5.312 36.971 15.317 9.707 10.027 14.912 23.36 14.507 37.291l-17.429 557.781h11.733c34.112 0 61.44 26.987 61.44 61.056v277.184c-0.021 10.411-8.149 18.197-18.581 18.197z" />
<glyph unicode="&#xe928;" glyph-name="Tourism-Icons_soup" d="M329.301 465.088h-75.883c-29.227 0-52.907-23.531-52.907-52.757s23.68-52.779 52.907-52.779h539.243c29.227 0 52.907 23.552 52.907 52.779s-23.68 52.757-52.907 52.757h-75.883c112.085 65.963 187.989 188.395 187.989 328.064 0 0.021 0 0.021 0 0.021-1.451 44.864-37.077 80.789-81.941 80.789h-599.573c-44.864 0-80.555-35.968-80.555-80.789v-0.021c0-139.669 74.517-262.101 186.603-328.064zM980.117 177.237c-11.968 11.627-28.096 17.92-44.779 17.429l-488.704-13.952c-31.253 50.475-110.635 86.336-203.627 86.336-120.32 0-217.835-60.011-217.835-134.059 0-74.027 97.536-134.037 217.835-134.037 92.992 0 172.373 35.861 203.627 86.315l488.704-13.952c16.661-0.469 32.811 5.803 44.779 17.429s18.688 27.584 18.688 44.245c0.021 16.683-6.72 32.64-18.688 44.245z" />
<glyph unicode="&#xe929;" glyph-name="Tourism-Icons_sugar" d="M712.405 587.819c-15.979 17.877-35.093 32.469-55.616 43.392v74.283c0 19.051-15.808 34.816-34.859 34.816h-49.984v68.139c0 9.515-3.883 18.603-10.88 25.131l-87.168 81.557c-10.027 9.365-24.597 11.904-37.184 6.443s-20.715-17.899-20.715-31.595v-149.675h-49.941c-19.008 0-34.027-15.765-34.027-34.816v-74.283c-21.419-10.923-40.043-25.515-56.043-43.392-37.504-41.877-55.552-97.941-49.323-153.835l41.536-374.379c5.781-52.011 49.6-91.243 101.931-91.243h247.68c52.331 0 96.192 39.232 101.995 91.285l41.685 374.336c6.272 55.893-11.605 111.957-49.088 153.835zM337.984 532.16c20.032 22.421 48.043 35.989 78.016 37.909v-180.181h155.947v180.181c29.995-1.941 58.005-15.509 78.080-37.909 21.696-24.235 32.085-56.683 28.501-89.003l-24.939-224.619h-319.168l-24.939 224.619c-3.605 32.32 6.805 64.789 28.501 89.003z" />
<glyph unicode="&#xe92a;" glyph-name="Tourism-Icons_take-away-coffee" d="M516.757 147.221c-56.96 0-105.344 40.619-129.451 101.227h-99.2l12.608-214.613c2.688-45.781 40.597-81.643 86.421-81.643h259.2c45.845 0 83.733 35.883 86.421 81.643l12.608 214.613h-99.157c-24.128-60.587-72.491-101.227-129.451-101.227zM704.939 860.8v14.528c0 32.107-26.368 58.752-58.475 58.752h-259.456c-32.107 0-57.963-26.645-57.963-58.752v-14.528c-69.568-14.656-122.325-76.331-122.325-149.931v-37.739c0-17.493 14.72-31.936 32.213-31.936h26.027l11.947-203.115h115.392c25.472 53.867 71.189 89.579 124.437 89.579s98.987-35.712 124.437-89.579h115.392l11.947 203.115h26.005c17.493 0 31.616 14.443 31.616 31.936v37.739c0.021 73.6-51.605 135.275-121.195 149.931zM763.307 705.173h-492.608v5.717c0 49.536 40.128 89.835 89.664 89.835 17.493 0 31.509 14.187 31.509 31.68v37.717h249.131v-37.739c0-17.493 14.571-31.68 32.064-31.68 49.557 0 90.24-40.299 90.24-89.835v-5.696zM599.317 337.28c0-70.209-36.963-127.125-82.56-127.125s-82.56 56.916-82.56 127.125c0 70.209 36.963 127.125 82.56 127.125s82.56-56.916 82.56-127.125z" />
<glyph unicode="&#xe92b;" glyph-name="Tourism-Icons_tea" d="M132.288 212.245c6.933-48.469 49.109-84.757 98.112-84.757h397.419c48.981 0 91.157 36.437 98.091 84.907l13.76 96.107h50.56c90.709 0 165.248 73.451 165.248 164.181v116.565c0 86.357-67.2 157.333-151.851 164.011l4.8 34.923c5.291 36.928-5.803 74.112-30.272 102.379-24.469 28.181-60.032 44.139-97.344 44.139h-503.403c-37.333 0-72.768-15.957-97.28-44.16-24.448-28.245-35.456-65.323-30.165-102.315l82.325-575.979zM872.427 589.269v-116.565c0-44.992-37.227-81.131-82.219-81.131h-36.416l40.256 279.488c43.371-1.856 78.379-37.995 78.379-81.792zM142.763 836.117c8.725 10.048 21.355 15.552 34.667 15.552h503.36c13.312 0 25.92-5.504 34.645-15.509 8.704-10.069 12.629-23.232 10.752-36.395l-82.347-575.765c-1.131-7.936-8.021-13.461-16.021-13.461h-397.419c-8.021 0-14.912 5.611-16.043 13.547l-82.325 575.872c-1.877 13.184 2.048 26.155 10.731 36.16zM257.323 267.221c1.664-9.856 10.219-16.832 20.224-16.832h303.125c10.005 0 18.56 6.976 20.224 16.832l56.555 335.147c2.731 16.128-1.792 32.683-12.352 45.163-10.581 12.501-26.112 19.755-42.453 19.755h-347.093c-16.363 0-31.872-7.339-42.432-19.819-10.56-12.501-15.104-28.928-12.373-45.056l56.576-335.189zM947.243 64.384h-870.485c-22.891 0-41.451-18.624-41.451-41.515s18.56-41.515 41.451-41.515h870.485c22.891 0 41.451 18.624 41.451 41.515s-18.56 41.515-41.451 41.515z" />
<glyph unicode="&#xe92c;" glyph-name="Tourism-Icons_toast" d="M866.496 926.848h-435.115c-70.677 0-128.043-57.237-128.043-127.915 0-7.147 0.597-15.232 1.749-20.885h279.147c105.536 0 191.339-86.123 191.339-191.637 0-62.912-30.485-120.533-80.085-155.968v-246.315h170.517c26.795 0 49.195 21.739 49.195 48.533v447.125c45.355 19.008 79.659 65.173 79.659 118.891 0 70.677-57.621 128.171-128.363 128.171zM712.235 586.133c0 113.707-107.029 128.128-128 128.128h-435.157c-24.96 0-128.021-21.653-128.021-128.128 0-90.325 59.243-110.485 80.512-118.677l0.384-439.595c0.021-31.104 25.259-56.32 56.363-56.32h417.301c14.955 0 29.291 5.931 39.851 16.512 10.581 10.581 16.512 24.917 16.491 39.872l-0.277 439.509c22.699 8.768 80.555 45.717 80.555 118.699zM608.576 526.101l-39.253-16.021v-474.795h-405.376v474.795l-39.275 16.085c-24.555 10.005-40.32 33.408-40.32 59.84 0 35.605 29.099 64.448 64.725 64.448h435.136c35.627 0 64.597-28.864 64.597-64.448 0.021-25.984-16-50.027-40.235-59.904zM328.875 519.893c0-19.582-15.874-35.456-35.456-35.456s-35.456 15.874-35.456 35.456c0 19.582 15.874 35.456 35.456 35.456s35.456-15.874 35.456-35.456zM444.053 459.797c0-21.373-17.326-38.699-38.699-38.699s-38.699 17.326-38.699 38.699c0 21.373 17.326 38.699 38.699 38.699s38.699-17.326 38.699-38.699zM346.411 343.659c0-24.424-19.8-44.224-44.224-44.224s-44.224 19.8-44.224 44.224c0 24.424 19.8 44.224 44.224 44.224s44.224-19.8 44.224-44.224zM480 262.123c0-20.619-16.715-37.333-37.333-37.333s-37.333 16.715-37.333 37.333c0 20.619 16.715 37.333 37.333 37.333s37.333-16.715 37.333-37.333zM408.917 146.475c0-20.878-16.925-37.803-37.803-37.803s-37.803 16.925-37.803 37.803c0 20.878 16.925 37.803 37.803 37.803s37.803-16.925 37.803-37.803zM286.251 191.616c0-12.218-9.905-22.123-22.123-22.123s-22.123 9.905-22.123 22.123c0 12.218 9.905 22.123 22.123 22.123s22.123-9.905 22.123-22.123zM513.835 568.448c0-14.81-12.006-26.816-26.816-26.816s-26.816 12.006-26.816 26.816c0 14.81 12.006 26.816 26.816 26.816s26.816-12.006 26.816-26.816z" />
<glyph unicode="&#xe92d;" glyph-name="Tourism-Icons_barcode" d="M895.509 819.776h-758.549c-59.605 0-107.819-48.491-107.819-107.712v-531.691c0-59.221 48.213-107.093 107.819-107.093h758.549c59.605 0 108.053 47.872 108.053 107.093v531.691c0 59.221-48.448 107.712-108.053 107.712zM937.173 180.395c0-22.891-18.368-41.941-41.685-41.941h-758.528c-23.317 0-42.688 19.051-42.688 41.941v531.669c0 22.891 19.392 41.323 42.688 41.323h758.549c23.296 0 41.685-18.432 41.685-41.323v-531.669zM165.653 668.523c-18.197 0-32.555-14.741-32.555-32.917v-378.752c0-18.197 14.357-32.917 32.555-32.917s32.555 14.741 32.555 32.917v378.731c0.021 18.197-14.357 32.939-32.555 32.939zM286.528 668.523c-30.315 0-54.485-24.555-54.485-54.891v-201.707c0-30.315 24.171-54.891 54.485-54.891s54.485 24.576 54.485 54.891v201.707c-0.021 30.336-24.171 54.891-54.485 54.891zM406.741 668.523c-18.197 0-33.173-14.741-33.173-32.917v-245.632c0-18.197 14.997-32.917 33.173-32.917 18.197 0 33.195 14.741 33.195 32.917v245.611c0.021 18.197-14.997 32.939-33.195 32.939zM527.616 668.544c-30.293 0-55.104-24.576-55.104-54.891v-201.728c0-30.315 24.811-54.891 55.104-54.891 30.315 0 55.104 24.576 55.104 54.891v201.728c0 30.315-24.789 54.891-55.104 54.891zM647.851 668.523c-18.197 0-32.555-14.741-32.555-32.917v-245.632c0-18.197 14.379-32.917 32.555-32.917 18.197 0 32.555 14.741 32.555 32.917v245.611c0.021 18.197-14.357 32.939-32.555 32.939zM768.085 668.523c-30.315 0-55.104-24.555-55.104-54.891v-201.707c0-30.315 24.811-54.891 55.104-54.891 30.315 0 55.104 24.576 55.104 54.891v201.707c0.021 30.336-24.768 54.891-55.104 54.891zM877.696 668.523c-12.117 0-21.909-9.813-21.909-21.952v-400.704c0-12.117 9.792-21.952 21.909-21.952s21.909 9.835 21.909 21.952v400.704c0 12.117-9.792 21.952-21.909 21.952zM823.211 255.083c0-17.963-14.571-32.533-32.533-32.533h-523.477c-17.963 0-32.533 14.571-32.533 32.533v41.579c0 17.963 14.571 32.533 32.533 32.533h523.456c17.963 0 32.533-14.571 32.533-32.533v-41.579z" />
<glyph unicode="&#xe92e;" glyph-name="Tourism-Icons_check-in-point" d="M476.011 234.667c7.403 16.64 7.723 35.584 0.917 52.48-10.56 26.197-35.776 42.219-62.507 42.219-7.659 0-15.36-1.323-22.955-4.075l-134.976-49.109v172.565c0 12.544-6.997 24.064-18.091 29.931-4.949 2.624-10.411 3.925-15.829 3.925-6.677 0-13.355-1.984-19.072-5.888l-147.093-100.416c-23.168-15.829-36.928-42.069-36.928-70.123v-153.216c0-41.344 29.675-76.651 70.4-83.648l69.888-12.011c4.843-0.832 9.621-1.237 14.379-1.237 34.773 0 66.688 21.419 79.339 54.869l8.768 23.189 175.488 64.576c17.067 6.336 30.869 19.307 38.272 35.968zM717.163 887.445c-128.021 0-234.859-92.309-257.472-213.867l-97.365 13.077c-25.024 3.349-48.043-14.229-51.392-39.253l-17.856-134.4c15.787-17.259 25.067-40 25.067-64.256v-84.885l52.437 19.136c14.187 5.163 28.907 7.765 43.947 7.765 52.821 0 99.669-31.68 119.424-80.683 12.949-32.128 12.288-68.715-1.771-100.352-14.037-31.659-40.768-56.683-73.237-68.629l-91.221-33.579 233.579-31.339c25.024-3.371 48.043 14.229 51.413 39.232l33.557 250.069c10.155-1.195 20.459-1.835 30.933-1.835 144.405 0 261.888 117.483 261.888 261.888s-117.525 261.909-261.931 261.909zM677.504 644.352l-41.237 5.525c10.475 34.752 42.773 60.139 80.896 60.139 46.571 0 84.437-37.888 84.437-84.437s-37.888-84.437-84.437-84.437c-2.475 0-4.907 0.107-7.317 0.32l6.912 51.52c3.349 25.003-14.208 48-39.253 51.371zM717.163 425.088c-7.701 0-15.296 0.448-22.763 1.301l7.253 54.123c5.099-0.533 10.261-0.832 15.509-0.832 80.427 0 145.856 65.429 145.856 145.856 0 80.448-65.429 145.877-145.856 145.877-69.248 0-127.381-48.512-142.208-113.344l-54.293 7.296c18.539 91.52 99.584 160.64 196.501 160.64 110.549 0 200.469-89.92 200.469-200.469s-89.92-200.448-200.469-200.448z" />
<glyph unicode="&#xe92f;" glyph-name="Tourism-Icons_check-in" d="M873.131 893.077h-365.163c-52.757 0-95.509-42.752-95.509-95.509v-230.827c0.363-3.499 0-7.040 0-10.603v-131.648l60.373 21.76v351.787c0 19.861 16.107 35.968 35.968 35.968h364.8c19.861 0 35.968-16.107 35.968-35.968v-698.773c0-19.883-16.107-35.989-35.968-35.989h-364.8c-19.861 0-35.968 16.107-35.968 35.989v39.744l-60.373-22.229v-18.368c0-52.736 42.752-95.509 95.509-95.509h365.184c52.757 0 95.509 42.752 95.509 95.509v699.179c-0.021 52.736-42.773 95.488-95.531 95.488zM693.355 769.771h-128.917c-13.696 0-24.811-11.115-24.811-24.811v-168.768c0-13.696 11.115-24.811 24.811-24.811h128.917c13.717 0 24.811 11.115 24.811 24.811v168.768c0 13.696-11.093 24.811-24.811 24.811zM849.621 457.643h-249.643c30.869-10.859 57.259-32 74.624-60.373h175.019c16.448 0 29.76 13.739 29.76 30.187s-13.333 30.187-29.76 30.187zM849.621 338.176h-154.624c2.304-20.245 0.341-40.896-5.845-60.373h160.469c16.448 0 29.76 13.739 29.76 30.187s-13.333 30.187-29.76 30.187zM849.621 218.709h-196.971c-14.443-14.123-31.808-25.237-50.965-32.299l-72.427-26.667c0.917-0.085 1.877-0.128 2.837-0.128h317.547c16.448 0 29.76 13.099 29.76 29.547s-13.355 29.547-29.781 29.547zM629.205 287.36c9.28 20.907 9.685 44.672 1.152 65.899-13.248 32.875-44.885 52.992-78.464 52.992-9.6 0-19.413-1.664-28.928-5.12l-169.579-61.632v216.661c0 15.744-8.661 30.208-22.592 37.568-6.229 3.285-13.013 4.928-19.819 4.928-8.405 0-16.747-2.496-23.936-7.403l-184.96-126.059c-29.099-19.861-46.699-52.8-46.699-88.021v-192.363c0-51.904 37.589-96.235 88.725-105.024l87.915-15.083c6.059-1.024 12.16-1.536 18.155-1.536 43.648 0 83.776 26.901 99.627 68.885l11.029 29.12 220.309 81.088c21.44 7.936 38.784 24.192 48.064 45.099z" />
<glyph unicode="&#xe930;" glyph-name="Tourism-Icons_conductor" d="M344.384 810.667h359.616v103.979c0 13.269-10.752 24.021-24.021 24.021h-361.259c-8.555 0-16.469-4.565-20.779-11.968s-4.331-21.867-0.085-29.312l46.528-86.72zM318.72 640h41.451c2.155-93.141 78.165-168.021 171.819-168.021s169.664 74.88 171.819 168.021h0.192v106.667h-359.616l-46.507-76.053c-4.245-7.445-4.224-11.243 0.085-18.645 4.288-7.403 12.203-11.968 20.757-11.968zM712.939 402.432l-330.368-445.099h425.408c13.269 0 24.021 10.752 24.021 24.021v275.84c0 71.851-51.157 131.712-119.061 145.237zM361.472 405.333c-81.813 0-148.139-66.325-148.139-148.139v-275.84c0-13.269 10.752-24.021 24.021-24.021h38.933l332.544 448h-247.36z" />
<glyph unicode="&#xe931;" glyph-name="Tourism-Icons_credit-card" d="M1001.173 614.677c0 75.947-61.803 137.109-137.728 137.109h-704.384c-75.925 0-137.728-61.163-137.728-137.109v-245.248h979.84v245.248zM21.333 208.384c0-75.947 61.803-137.109 137.728-137.109h704.384c75.925 0 137.728 61.163 137.728 137.109v11.392h-979.84v-11.392z" />
<glyph unicode="&#xe932;" glyph-name="Tourism-Icons_credit-cards" d="M139.285 647.957l764.8 195.307-7.808 30.592c-9.301 36.395-46.315 58.347-82.688 49.045l-633.067-161.664c-36.395-9.301-58.347-46.315-49.045-82.688l7.808-30.592zM950.805 385.493c36.395 9.301 58.347 46.315 49.045 82.688l-62.357 244.181-533.909-136.363h360.427c72.789 0 131.989-59.2 131.989-131.989v-72.512l54.805 13.995zM832 444.011c0 37.547-30.443 67.989-67.989 67.989h-653.355c-37.547 0-67.989-30.443-67.989-67.989v-418.688c0-37.547 30.443-67.989 67.989-67.989h653.355c37.547 0 67.989 30.443 67.989 67.989v418.688zM117.333 394.667c0 17.685 14.315 32 32 32h362.667c17.685 0 32-14.315 32-32s-14.315-32-32-32h-362.667c-17.685 0-32 14.315-32 32zM528.576 18.944c-59.563 0-107.861 48.299-107.861 107.861s48.299 107.861 107.861 107.861 107.861-48.299 107.861-107.861-48.277-107.861-107.861-107.861zM764.437 126.805c0-59.563-48.299-107.861-107.861-107.861-7.189 0-14.229 0.768-21.013 2.133 26.901 27.2 43.563 64.555 43.563 105.749s-16.661 78.549-43.563 105.749c6.805 1.344 13.824 2.133 21.013 2.133 59.584-0.043 107.861-48.341 107.861-107.904z" />
<glyph unicode="&#xe933;" glyph-name="Tourism-Icons_fingerprint" d="M885.419 734.165c-12.544 20.757-39.403 27.456-60.181 14.891-20.715-12.523-27.456-39.509-14.891-60.224 30.827-51.093 47.083-109.824 47.083-169.835v-504.512c0-24.213 19.627-43.861 43.861-43.861s43.84 19.648 43.84 43.861v504.491c-0.021 76.011-20.608 150.421-59.712 215.189zM528.405 848.021c59.477 0 117.781-16 168.533-46.315 20.821-12.459 47.787-5.653 60.203 15.168 12.395 20.8 5.632 47.744-15.189 60.16-64.32 38.421-138.219 58.731-213.504 58.731-229.845 0-416.896-186.965-416.896-416.789v-163.691c0-24.235 19.627-43.861 43.861-43.861s43.84 19.627 43.84 43.861v163.691c-0.021 181.44 147.691 329.045 329.152 329.045zM764.203 241.6c-24.256 0-43.883-19.648-43.883-43.883v-183.253c0-24.213 19.627-43.861 43.883-43.861 24.213 0 43.84 19.648 43.84 43.861v183.253c0 24.235-19.627 43.883-43.84 43.883zM336.32 241.835v139.392c0 24.235-19.627 43.883-43.861 43.883s-43.84-19.627-43.84-43.883v-139.392c0-24.235 19.605-43.883 43.84-43.883s43.861 19.648 43.861 43.883zM528.448 796.395c-154.197 0-279.595-125.461-279.595-279.659 0-24.213 19.648-43.861 43.904-43.861 24.213 0 43.861 19.648 43.861 43.861 0 105.835 86.059 191.936 191.893 191.936 105.813 0 191.851-86.101 191.851-191.936v-161.429c0-24.235 19.627-43.861 43.883-43.861 24.213 0 43.84 19.627 43.84 43.861v161.429c-0.043 154.197-125.44 279.659-279.637 279.659zM617.899 92.139c-27.691-14.635-57.792-22.037-89.365-22.037-56.491 0-109.845 24.747-146.432 67.861-15.637 18.496-43.328 20.757-61.824 5.099-18.475-15.659-20.736-43.349-5.077-61.824 53.312-62.827 131.051-98.859 213.355-98.859 45.355 0 90.432 11.115 130.304 32.149 21.44 11.307 29.653 37.845 18.347 59.285-11.307 21.397-37.867 29.611-59.307 18.325zM623.061 386.304c24.256 0 43.861 19.648 43.861 43.861v64.896c0 76.437-62.080 138.645-138.517 138.645-76.459 0-138.56-62.208-138.56-138.667 0-24.213 19.669-43.861 43.883-43.861 24.256 0 43.904 19.648 43.904 43.861 0 28.075 22.741 50.923 50.795 50.923 28.117 0 50.837-22.827 50.837-50.901v-64.896c-0.043-24.213 19.584-43.861 43.797-43.861zM389.739 283.648c0-76.437 62.293-138.624 138.752-138.624 76.437 0 138.645 62.187 138.645 138.645 0 24.256-19.605 43.883-43.861 43.883-24.235 0-43.883-19.627-43.883-43.883 0-28.053-22.869-50.901-50.965-50.901s-51.008 22.827-51.008 50.88v64.917c0 24.235-19.627 43.883-43.861 43.883-24.213 0-43.861-19.648-43.861-43.883v-64.917zM155.392 251.072c-24.256 0-43.861-19.627-43.861-43.883v-197.419c0-24.213 19.605-43.861 43.861-43.861 24.213 0 43.84 19.648 43.84 43.861v197.419c0 24.256-19.627 43.883-43.84 43.883z" />
<glyph unicode="&#xe934;" glyph-name="Tourism-Icons_flight-card" d="M657.664 841.131c-14.272 39.915-52.117 68.651-96.576 68.651h-330.069v-772.693h67.072v540.864c0 90.261 74.091 163.179 164.373 163.179h195.2zM33.067 806.805v-567.808c0-47.595 31.936-87.595 76.629-99.243v766.293c-44.693-11.648-76.629-51.648-76.629-99.243zM888.256 780.459h-425.237c-56.704 0-102.677-45.973-102.677-102.677v-567.339c0-56.704 45.973-102.677 102.677-102.677h425.237c56.704 0 102.677 45.973 102.677 102.677v567.339c0 56.704-45.973 102.677-102.677 102.677zM429.376 380.267c-3.349-0.043-6.805 1.28-9.195 3.648-2.411 2.368-3.989 5.611-3.989 8.96v7.872c0 12.267 7.019 23.531 17.856 29.248l102.037 53.781c-0.171-2.496-0.171-5.035-0.171-7.573 0-16.939 6.4-49.323 17.557-86.805v-8l-124.096-1.131zM524.736 223.296c-11.499 0-20.8 9.6-20.8 21.099 0 9.387 6.208 17.621 15.232 20.203l69.056 19.755c8.533-22.357 17.344-43.52 25.813-61.077h-89.301zM675.115 220.309c-7.723 0-15.019 3.691-19.584 9.941-29.291 39.979-81.109 196.949-81.109 236.843 0 55.595 45.077 100.693 100.693 100.693s100.693-45.077 100.693-100.693c0-39.893-51.797-196.885-81.067-236.843-4.587-6.251-11.883-9.941-19.627-9.941zM825.493 223.296h-89.323c8.469 17.557 17.28 38.699 25.813 61.077l69.077-19.605c9.003-2.581 15.253-11.051 15.253-20.416 0.021-11.52-9.301-21.056-20.821-21.056zM933.461 392.875c0-3.349-1.259-6.592-3.669-8.96-2.411-2.347-5.888-3.669-9.259-3.627l-124.373 1.131v7.979c11.179 37.483 17.792 69.867 17.792 86.805 0 2.539 0.085 5.056-0.085 7.573l101.952-53.781c10.837-5.717 17.621-16.981 17.621-29.248v-7.872zM722.688 488.789c-2.347 5.525-7.787 9.109-13.781 9.109h-67.584c-5.973 0-11.435-3.584-13.781-9.109l-13.355-31.125c-2.005-4.651-1.515-9.728 1.28-13.931 2.752-4.224 7.488-6.507 12.523-6.507h94.251c5.035 0 9.749 2.283 12.544 6.507 2.773 4.203 3.243 9.408 1.28 14.059l-13.376 30.997z" />
<glyph unicode="&#xe935;" glyph-name="Tourism-Icons_fling-ticket" d="M806.016 718.891l-167.68-1.387c-18.965 30.293-40.576 59.755-57.237 82.453-7.509 10.283-19.605 16.427-32.384 16.427s-24.875-6.123-32.363-16.405c-16.768-22.848-38.528-52.544-57.579-83.093l-169.045 1.429c-3.541 0.021-6.656-1.899-9.152-5.312-2.496-3.456-3.648-8.107-3.648-12.971v-6.336c0-20.416 9.109-38.592 23.104-45.269l116.437-55.872c8.469-65.493 64.533-116.267 132.309-116.267 68.288 0 124.715 51.563 132.523 117.781l114.773 54.933c13.995 6.677 23.552 24.875 23.552 45.269v6.336c0 4.885-1.579 9.515-4.096 12.949-2.496 3.435-5.973 5.376-9.515 5.333zM621.653 580.501c-3.413-5.141-9.152-8.192-15.317-8.192h-115.2c-6.165 0-11.925 3.051-15.317 8.192s-3.989 11.627-1.536 17.323l16.32 37.845c2.901 6.741 9.515 10.987 16.875 10.987h82.581c7.339 0 13.973-4.224 16.875-10.987l16.299-37.952c2.389-5.653 1.792-12.075-1.579-17.216zM833.28 930.624h-570.837c-57.408 0-104.405-46.699-104.405-104.128v-764.096c0-57.408 46.997-104.107 104.405-104.107h570.837c57.429 0 103.808 46.677 103.808 104.107v764.096c0 57.429-46.379 104.128-103.808 104.128zM853.824 62.251c0-11.435-9.28-20.715-20.715-20.715h-571.093c-11.456 0-20.715 9.28-20.715 20.715v764.395c0 11.456 9.259 20.715 20.715 20.715h571.115c11.435 0 20.715-9.259 20.715-20.715v-764.395zM714.688 288.363c23.019 0 41.707 18.581 41.707 41.621 0 23.019-18.667 41.643-41.707 41.643h-333.653c-23.040 0-41.707-18.624-41.707-41.643 0-23.040 18.667-41.621 41.707-41.621h333.653zM762.475 225.877h-429.227c-23.040 0-41.707-18.581-41.707-41.579 0-23.040 18.667-41.643 41.707-41.643h429.227c23.040 0 41.707 18.603 41.707 41.643 0 22.997-18.688 41.579-41.707 41.579z" />
<glyph unicode="&#xe936;" glyph-name="Tourism-Icons_id-card" d="M863.979 778.645h-693.419c-78.485 0-142.315-63.851-142.315-142.4v-438.72c0-78.549 63.829-142.101 142.315-142.101h693.419c78.507 0 142.165 63.552 142.165 142.101v438.72c0 78.549-63.68 142.4-142.165 142.4zM921.259 197.504c0-31.552-25.728-57.195-57.28-57.195h-693.419c-31.552 0-57.429 25.643-57.429 57.195v438.741c0 31.573 25.877 57.515 57.429 57.515h693.419c31.552 0 57.28-25.941 57.28-57.515v-438.741zM378.24 464.981c19.947 15.040 32.917 38.912 32.917 65.792 0 45.44-36.8 82.283-82.24 82.283-45.461 0-82.283-36.843-82.283-82.283 0-26.325 12.224-49.771 31.467-64.853-40.085-18.667-67.563-59.605-67.563-107.115v-106.56c0-17.131 14.357-31.232 31.509-31.232h173.803c17.131 0 27.712 14.101 27.712 31.232v106.581c-0.043 46.699-26.325 87.083-65.323 106.155zM513.621 514.411h177.216c24.427 0 44.309 20.075 44.309 44.523s-19.883 44.523-44.309 44.523h-177.216c-24.427 0-44.309-20.075-44.309-44.523s19.883-44.523 44.309-44.523zM779.435 461.141h-265.813c-24.427 0-44.309-19.669-44.309-44.117s19.883-44.117 44.309-44.117h265.813c24.448 0 44.309 19.669 44.309 44.117s-19.883 44.117-44.309 44.117zM779.435 319.659h-265.813c-24.427 0-44.309-20.096-44.309-44.544s19.883-44.523 44.309-44.523h265.813c24.448 0 44.309 20.075 44.309 44.523s-19.883 44.544-44.309 44.544z" />
<glyph unicode="&#xe937;" glyph-name="Tourism-Icons_id" d="M851.968 815.019h-192.064v102.421c0 14.741-12.011 26.667-26.731 26.667h-181.973c-14.72 0-26.219-11.904-26.219-26.667v-102.421h-192.576c-25.131 0-44.928-20.437-44.928-45.568v-761.152c0-25.131 19.819-45.184 44.928-45.184h619.563c25.131 0 45.419 20.053 45.419 45.184v761.152c-0.021 25.131-20.309 45.568-45.419 45.568zM368.171 740.907c0 14.741 12.267 26.368 27.008 26.368h29.803v-20.331c0-14.72 11.477-26.155 26.219-26.155h181.973c14.699 0 26.731 11.413 26.731 26.155v20.331h29.291c14.699 0 27.499-11.605 27.499-26.368v-41.28c0-14.741-12.8-26.581-27.499-26.581h-294.037c-14.72 0-27.008 11.84-27.008 26.581v41.28zM790.912 37.995h-497.493c-17.685 0-32.064 13.931-32.064 31.616 0 17.707 14.379 31.637 32.064 31.637h497.493c17.685 0 32.043-13.931 32.043-31.637 0-17.685-14.357-31.616-32.043-31.616zM826.368 268.672c0-25.109-20.693-46.123-45.824-46.123h-98.709v70.357c0 52.992-44.139 96.149-97.173 96.149h-84.971c-52.992 0-96.64-43.157-96.64-96.149v-70.357h-99.221c-25.173 0-45.355 20.992-45.355 46.123v287.765c0 25.109 20.181 45.632 45.355 45.632h476.736c25.152 0 45.824-20.501 45.824-45.632v-287.765zM627.115 489.749c0-46.834-37.966-84.8-84.8-84.8s-84.8 37.966-84.8 84.8c0 46.834 37.966 84.8 84.8 84.8s84.8-37.966 84.8-84.8z" />
<glyph unicode="&#xe938;" glyph-name="Tourism-Icons_international-pass" d="M540.651 713.621c5.419-23.616 9.515-49.941 12.203-77.525 27.584-2.667 53.909-6.763 77.547-12.181-5.12 24.213-12.843 46.741-22.656 67.072-20.309 9.813-42.859 17.536-67.093 22.635zM533.803 369.003c-5.44-17.92-11.819-33.579-19.136-46.101 27.883 10.923 52.885 31.872 72.917 60.245-16.981-6.080-34.987-10.816-53.781-14.144zM634.688 510.635c1.813 14.165 2.88 28.736 2.88 43.648 0 14.891-1.067 29.483-2.88 43.648-22.293 5.739-49.088 10.517-79.851 13.696 1.259-18.88 1.92-38.123 1.92-57.344s-0.661-38.485-1.92-57.344c30.784 3.157 57.557 7.936 79.851 13.696zM434.837 365.333c11.392-33.003 24.768-51.093 36.181-51.093 11.392 0 24.811 18.091 36.181 51.093-11.84-1.152-23.915-1.813-36.181-1.813s-24.341 0.64-36.181 1.813zM607.744 417.557c9.792 20.331 17.515 42.859 22.656 67.072-23.637-5.44-49.941-9.515-77.547-12.181-2.667-27.605-6.763-53.909-12.203-77.547 24.235 5.12 46.784 12.864 67.093 22.656zM586.133 343.744c40.149 22.059 73.387 55.253 95.445 95.424-15.851-15.061-34.731-28.373-56-39.467-11.072-21.248-24.384-40.128-39.445-55.957zM401.387 713.621c-24.213-5.099-46.741-12.843-67.072-22.656-9.792-20.309-17.536-42.837-22.635-67.072 23.616 5.44 49.92 9.515 77.504 12.181 2.709 27.605 6.805 53.931 12.203 77.547zM413.696 470.443c3.157-30.763 7.957-57.536 13.675-79.829 14.187-1.813 28.757-2.88 43.648-2.88 14.912 0 29.483 1.067 43.648 2.88 5.739 22.293 10.539 49.067 13.696 79.829-18.859-1.28-38.123-1.92-57.344-1.92s-38.464 0.661-57.323 1.92zM304.491 554.283c0-14.912 1.067-29.483 2.88-43.648 22.293-5.76 49.045-10.539 79.829-13.696-1.259 18.859-1.899 38.144-1.899 57.344s0.64 38.464 1.899 57.344c-30.763-3.179-57.536-7.957-79.829-13.696-1.813-14.165-2.88-28.757-2.88-43.648zM354.453 383.147c20.032-28.373 45.056-49.323 72.939-60.245-7.339 12.523-13.696 28.181-19.136 46.101-18.816 3.328-36.8 8.064-53.803 14.144zM642.155 437.696c28.352 20.032 49.323 45.035 60.245 72.939-12.501-7.339-28.181-13.739-46.080-19.136-3.328-18.816-8.107-36.821-14.165-53.803zM401.387 394.901c-5.397 23.637-9.493 49.941-12.181 77.547-27.584 2.667-53.888 6.741-77.504 12.181 5.077-24.213 12.821-46.741 22.635-67.093 20.309-9.792 42.837-17.515 67.051-22.635zM532.565 554.283c0 21.035-0.789 40.789-2.069 59.435-18.667 1.301-38.421 2.091-59.456 2.091-21.056 0-40.789-0.789-59.435-2.091-1.301-18.645-2.091-38.379-2.091-59.435 0-21.077 0.789-40.811 2.091-59.477 18.645-1.301 38.379-2.069 59.435-2.069 21.035 0 40.789 0.789 59.456 2.069 1.28 18.667 2.069 38.4 2.069 59.477zM355.925 343.744c-15.061 15.851-28.373 34.709-39.488 55.957-21.248 11.115-40.107 24.427-55.957 39.488 22.059-40.192 55.275-73.408 95.445-95.445zM299.904 437.696c-6.059 16.981-10.795 34.987-14.144 53.803-17.941 5.397-33.579 11.797-46.123 19.136 10.944-27.904 31.893-52.885 60.267-72.939zM355.925 764.8c-40.171-22.037-73.387-55.253-95.445-95.424 15.851 15.061 34.709 28.373 55.957 39.467 11.115 21.248 24.448 40.107 39.488 55.957zM280.277 554.283c0 12.267 0.661 24.341 1.813 36.16-33.003-11.371-51.093-24.747-51.093-36.16s18.091-24.811 51.093-36.181c-1.152 11.84-1.813 23.893-1.813 36.181zM869.995 815.104c0 65.259-53.355 117.888-118.592 117.888h-561.109c-65.259 0-118.272-52.629-118.272-117.888v-738.453c0-65.259 53.035-117.867 118.272-117.867h561.088c65.237 0 118.592 52.629 118.592 117.867v738.453zM471.040 818.496c145.685 0 264.213-118.528 264.213-264.213 0-145.728-118.528-264.235-264.213-264.235-145.707 0-264.213 118.528-264.213 264.235-0.021 145.685 118.507 264.213 264.213 264.213zM767.296 122.496c0-14.293-12.224-26.325-26.517-26.325h-523.627c-14.272 0-25.792 12.011-25.792 26.325v59.264c0 14.272 11.52 25.408 25.792 25.408h523.605c14.293 0 26.517-11.136 26.517-25.408v-59.264zM661.781 554.283c0-12.288-0.661-24.341-1.856-36.181 33.045 11.371 51.115 24.768 51.115 36.181s-18.069 24.789-51.115 36.16c1.216-11.819 1.856-23.893 1.856-36.16zM299.904 670.848c-28.373-20.032-49.323-45.056-60.245-72.939 12.523 7.317 28.16 13.717 46.123 19.115 3.307 18.816 8.064 36.821 14.123 53.824zM587.605 725.376c-20.032 28.373-45.056 49.323-72.917 60.267 7.317-12.544 13.696-28.181 19.136-46.123 18.773-3.307 36.821-8.064 53.781-14.144zM681.579 669.376c-22.059 40.171-55.275 73.387-95.445 95.424 15.061-15.851 28.373-34.709 39.445-55.979 21.248-11.072 40.149-24.384 56-39.445zM642.155 670.848c6.059-16.981 10.837-35.008 14.165-53.803 17.899-5.419 33.557-11.819 46.080-19.115-10.923 27.84-31.893 52.864-60.245 72.917zM408.256 739.541c5.44 17.941 11.797 33.579 19.136 46.123-27.883-10.944-52.885-31.893-72.939-60.267 16.981 6.059 34.987 10.816 53.803 14.144zM507.2 743.189c-11.371 33.024-24.789 51.115-36.181 51.115-11.413 0-24.811-18.091-36.181-51.115 11.84 1.195 23.936 1.835 36.181 1.835s24.341-0.64 36.181-1.835zM427.371 717.931c-5.739-22.272-10.517-49.067-13.675-79.829 18.859 1.259 38.123 1.899 57.344 1.899s38.485-0.64 57.344-1.92c-3.157 30.763-7.979 57.557-13.696 79.829-14.165 1.813-28.736 2.88-43.648 2.88-14.912 0.021-29.483-1.045-43.669-2.859zM866.069 932.992h-20.736c34.496-27.755 56.555-70.144 56.555-117.888v-738.453c0-47.744-22.059-90.133-56.555-117.867h20.736c65.259 0 117.717 52.629 117.717 117.867v738.453c0 65.259-52.459 117.888-117.717 117.888z" />
<glyph unicode="&#xe939;" glyph-name="Tourism-Icons_online-checkin" d="M548.928 393.92l-70.677-20.224c-8.747 22.891-17.749 43.819-26.432 62.187h49.813c-43.093 45.099-73.344 103.552-84.971 167.040h-257.109c-17.259 0-31.232 14.485-31.232 31.744 0 17.237 13.973 31.723 31.232 31.723h251.904c0.427 41.771 8.64 81.856 23.317 118.613h-262.997c-57.984 0-105.728-47.061-105.728-105.088v-580.885c0-58.005 47.744-105.813 105.728-105.813h435.2c57.984 0 105.493 47.808 105.493 105.813v234.197c-60.117 5.504-116.224 27.243-162.859 60.843-0.128-0.064-0.533-0.107-0.683-0.149zM235.52 435.883h91.371c-8.661-18.368-17.664-39.296-26.411-62.187l-70.656 20.224c-9.237 2.645-15.573 11.072-15.573 20.672 0 11.776 9.493 21.291 21.269 21.291zM264.832 266.56c-10.048-38.336-17.856-71.467-17.856-88.789 0-2.603 0.085-5.205 0.256-7.765l-104.469 55.019c-11.093 5.845-18.24 17.365-18.24 29.909v8.064c0 3.435 1.6 6.741 4.053 9.173 2.432 2.411 5.781 3.776 9.237 3.733l127.040-1.173v-8.171zM389.355 84.075c-56.875 0-102.997 46.123-102.997 102.997 0 40.811 52.992 201.408 82.987 242.304 4.651 6.4 12.096 10.176 20.011 10.176s15.403-3.776 20.075-10.176c29.931-40.896 82.944-201.493 82.944-242.304 0-56.875-46.101-102.997-103.019-102.997zM650.069 272.192c2.475-2.432 3.968-5.76 3.968-9.173v-8.064c0-12.544-7.040-24.064-18.155-29.909l-104.341-55.019c0.171 2.581 0.171 5.163 0.171 7.765 0 17.323-6.315 50.453-18.005 88.811v8.171l127.019 1.173c3.435 0 6.869-1.344 9.344-3.755zM328.341 211.541c-2.859-4.331-3.328-9.92-1.301-14.677l13.653-32.064c2.389-5.653 7.979-9.536 14.080-9.536h69.141c6.144 0 11.712 3.819 14.123 9.472l13.653 31.936c2.048 4.757 1.557 10.517-1.301 14.827-2.859 4.331-7.659 7.232-12.843 7.232h-96.427c-5.12 0-9.963-2.88-12.779-7.189zM742.357 931.328c-148.053 0-268.523-120.448-268.523-268.523 0-148.053 120.448-268.523 268.523-268.523s268.544 120.448 268.544 268.523c0 148.053-120.469 268.523-268.544 268.523zM742.357 456.704c-113.621 0-206.080 92.437-206.080 206.080s92.459 206.080 206.080 206.080c113.643 0 206.080-92.437 206.080-206.080 0-113.621-92.437-206.080-206.080-206.080zM888.384 759.488c-12.907 12.928-32.235 15.573-47.765 7.936-4.011-1.963-7.744-4.608-11.115-7.936l-129.707-129.728-44.565 44.544c-15.275 15.275-39.445 16.192-55.787 2.773-1.067-0.875-2.091-1.792-3.093-2.773-16.256-16.256-16.256-42.624 0-58.859l73.984-74.005c8.128-8.128 18.773-12.181 29.44-12.181 10.645 0 21.291 4.053 29.419 12.181l159.168 159.168c16.277 16.277 16.277 42.624 0.021 58.88z" />
<glyph unicode="&#xe93a;" glyph-name="Tourism-Icons_passport" d="M465.195 205.717h-0.384c-1.899-8.384-3.797-17.323-5.867-24.683l-7.573-27.157h28.245l-7.957 27.157c-2.304 7.552-4.565 16.299-6.464 24.683zM736.981 938.283h-438.635c-75.627 0-136.939-61.312-136.939-136.939v-706.24c0-75.627 61.312-136.939 136.939-136.939h438.635c75.627 0 136.939 61.312 136.939 136.939v706.24c0 75.627-61.312 136.939-136.939 136.939zM357.099 144.405v-45.739h-28.437v126.123c8.363 1.493 21.12 2.645 38.763 2.645 17.813 0 30.379-3.392 38.912-10.219 8.149-6.464 13.568-17.088 13.568-29.589 0-12.523-4.096-23.125-11.691-30.336-9.856-9.301-24.384-13.461-41.451-13.461-3.797 0-8 0.192-9.664 0.576zM493.632 98.667l-9.856 33.429h-36.587l-9.109-33.429h-29.952l39.061 127.104h37.931l39.616-127.104h-31.104zM563.648 96.811c-14.592 0-28.992 3.797-36.224 7.765l5.909 23.872c7.765-3.989 19.712-7.957 32.043-7.957 13.269 0 20.288 5.525 20.288 13.845 0 7.957-6.080 12.501-21.419 18.027-21.227 7.403-35.072 19.136-35.072 37.739 0 21.781 18.197 38.485 48.341 38.485 14.421 0 25.024-3.051 32.619-6.464l-6.443-23.317c-5.12 2.453-14.229 6.059-26.731 6.059s-18.581-5.696-18.581-12.309c0-8.171 7.211-11.755 23.701-18.027 22.571-8.341 33.173-20.075 33.173-38.101-0.021-21.419-16.512-39.616-51.605-39.616zM656.619 96.811c-14.592 0-29.013 3.797-36.224 7.765l5.888 23.872c7.765-3.989 19.712-7.957 32.043-7.957 13.269 0 20.288 5.525 20.288 13.845 0 7.957-6.059 12.501-21.419 18.027-21.248 7.403-35.072 19.136-35.072 37.739 0 21.781 18.197 38.485 48.341 38.485 14.4 0 25.024-3.051 32.619-6.464l-6.443-23.317c-5.12 2.453-14.229 6.059-26.731 6.059s-18.581-5.696-18.581-12.309c0-8.171 7.211-11.755 23.701-18.027 22.571-8.341 33.195-20.075 33.195-38.101-0.043-21.419-16.533-39.616-51.605-39.616zM518.123 339.819c-115.349 0-209.195 93.845-209.195 209.195s93.824 209.216 209.195 209.216 209.195-93.845 209.195-209.216c0-115.349-93.845-209.195-209.195-209.195zM368.853 205.653c-5.867 0-10.069-0.555-11.755-1.152v-37.739c1.685-0.555 5.312-0.747 9.472-0.747 15.36 0 24.832 7.765 24.832 20.864 0 11.755-8.149 18.773-22.549 18.773zM594.411 683.008c-0.64-7.723-6.72-14.933-24.384-16.427-6.272-0.512-20.523-6.293-28.992-15.275-9.387-9.92-35.115-13.76-41.237-7.851-6.101 5.867 33.003 25.237 19.84 42.987-4.245 6.955-6.357 12.395-7.061 16.683-28.075-1.003-54.251-9.515-76.587-23.616 11.413-2.368 19.904-10.069 8.64-31.253-22.699-42.752-42.027-82.432-14.805-71.744s64.043 4.587 73.024-16.789c5.312-12.693 16.811-49.621-21.376-53.824s-44.971-24.085-44.288-31.68c1.365-15.040-35.477-15.019-29.099-33.131 28.011-28.544 66.987-46.272 110.016-46.272 22.571 0 44.011 4.885 63.339 13.632-5.483 11.584 4.693 31.424-6.848 39.808-16.811 12.224-35.733 4.651-50.389 24.448-12.032 16.235 9.152 24.427 33.195 33.216s6.763 49.323 0 70.635c-8.341 26.283 37.035 53.696 56.896 54.955 15.723 1.024 28.416-2.283 38.507-7.467-13.696 24.533-33.941 44.992-58.389 58.965z" />
<glyph unicode="&#xe93b;" glyph-name="Tourism-Icons_phone-book" d="M704.043 770.837c-17.899 44.757-49.408 76.245-82.176 97.237 13.205 6.997 19.755 22.699 14.805 37.312-5.483 16.213-23.040 24.917-39.296 19.435l-458.411-155.029c-8.491-2.88-25.728-21.461-25.728-40.533v-721.771c0-23.275 18.432-42.176 41.728-42.176h547.627c53.76 0 96.896 43.563 96.896 97.323v611.477c-0.021 53.248-42.368 95.957-95.445 96.725zM535.765 838.507c18.688-4.736 69.248-21.355 98.901-67.627h-298.901l200 67.627zM662.699 85.397c-5.333-13.035-15.659-23.424-28.672-28.864h-0.021c-89.451-37.355-192.256 4.864-229.632 94.315l-129.173 309.269c-17.941 42.944-18.091 91.264-0.405 134.315 17.685 43.072 51.733 77.333 94.699 95.253l0.021 0.021c27.093 11.307 58.24-1.472 69.568-28.587l47.147-112.896c11.328-27.115-1.472-58.24-28.565-69.568l-30.059-12.565 88.149-211.051 30.080 12.544c27.115 11.328 58.261-1.472 69.589-28.565l47.147-112.917c5.44-13.013 5.483-27.648 0.128-40.704z" />
<glyph unicode="&#xe93c;" glyph-name="Tourism-Icons_qr-code-scan" d="M234.432 920.661h-153.152c-28.203 0-50.859-22.592-50.859-50.773v-153.195c0-28.181 22.656-51.264 50.859-51.264h153.173c28.203 0 51.179 23.083 51.179 51.264v153.195c0 28.181-22.997 50.773-51.2 50.773zM239.552 717.547c0-3.349-2.709-6.059-6.080-6.059h-152.875c-3.349 0-6.059 2.709-6.059 6.059v152.917c0 3.349 2.709 6.059 6.059 6.059h152.896c3.371 0 6.080-2.709 6.080-6.059v-152.917zM109.077 841.984h97.877v-97.856h-97.877v97.856zM234.432 521.515h-153.152c-28.203 0-50.859-22.485-50.859-50.667v-153.216c0-28.181 22.656-51.371 50.859-51.371h153.173c28.203 0 51.179 23.189 51.179 51.371v153.216c0 28.181-22.997 50.667-51.2 50.667zM239.552 317.739c0-3.349-2.389-5.397-5.739-5.397h-152.768c-3.349 0-6.507 2.048-6.507 5.397v152.811c0 3.349 3.136 6.827 6.507 6.827h152.789c3.328 0 5.739-3.499 5.739-6.827v-152.811zM109.077 442.837h97.877v-97.877h-97.877v97.877zM478.229 665.429h153.173c28.181 0 51.456 23.083 51.456 51.264v153.195c0 28.181-23.275 50.773-51.456 50.773h-153.173c-28.203 0-50.603-22.592-50.603-50.773v-153.195c0-28.181 22.4-51.264 50.603-51.264zM471.765 870.464c0 3.349 2.709 6.059 6.059 6.059h152.917c3.349 0 6.037-2.709 6.037-6.059v-152.917c0-3.349-2.688-6.059-6.037-6.059h-152.917c-3.349 0-6.059 2.709-6.059 6.059v152.917zM504.405 841.984h99.776v-97.856h-99.776v97.856zM122.133 636.651h-33.771c-7.36 0-13.803-6.144-13.803-13.504v-33.771c0-7.36 6.443-14.144 13.803-14.144h32.235v-0.427c0-7.36 5.205-12.992 12.565-12.992h75.712v-1.6c0-7.36 6.528-13.76 13.888-13.76h33.771c7.381 0 13.739 6.379 13.739 13.76v32.725c0 7.36-6.357 13.013-13.739 13.013h-16.96v17.195c0 7.36-5.867 13.504-13.248 13.504h-18.155c-7.36 0-12.736-6.144-12.736-13.504v-17.216h-59.499v17.216c0 7.381-6.443 13.504-13.803 13.504zM337.429 776.747v-74.837c0-7.36 5.056-13.44 12.437-13.44h48.363c7.36 0 14.059 6.080 14.059 13.44v33.771c0 7.36-6.699 14.208-14.059 14.208h-16.64v103.616h2.048c7.36 0 13.312 5.675 13.312 13.035v18.133c0 7.36-5.931 12.949-13.312 12.949h-63.979c-7.381 0-12.928-5.611-12.928-12.949v-18.133c0-7.36 5.547-13.035 12.928-13.035h17.771v-47.979h-17.771c-7.381 0-12.928-6.208-12.928-13.568v-2.517c0-7.36 5.547-12.693 12.928-12.693h17.771zM373.909 621.205v32.832c0 7.36-5.973 13.333-13.333 13.333h-32.832c-7.36 0-13.333-5.973-13.333-13.333v-32.832c0-7.36 5.973-13.333 13.333-13.333h32.832c7.36 0 13.333 5.952 13.333 13.333zM432.171 609.771c-7.36 0-14.123-6.357-14.123-13.717v-13.184c11.52 9.749 24.128 19.221 36.608 26.901h-22.485zM414.592 579.072h-57.429c-7.36 0-13.952-5.845-13.952-13.227v-76.907c15.36 27.712 33.643 53.632 56.875 76.864 4.587 4.587 9.643 9.429 14.507 13.269zM982.464 70.912l-125.589 125.568c66.005 105.707 53.397 247.701-38.656 339.776-107.072 107.051-281.259 107.072-388.309 0-107.072-107.051-106.859-281.067 0.192-388.139 92.075-92.032 233.259-105.451 339.947-38.464l125.568-125.589c24.107-24.107 62.955-24.299 87.061-0.213 24.085 24.128 23.872 62.955-0.213 87.061zM765.909 200.341c-78.187-78.208-205.419-78.208-283.605 0-78.229 78.208-78.229 205.44 0 283.627 78.187 78.187 205.419 78.187 283.605 0s78.187-205.44 0-283.627z" />
<glyph unicode="&#xe93d;" glyph-name="Tourism-Icons_qr-code" d="M407.808 837.739c0 40.725-33.003 73.728-73.749 73.728h-221.291c-40.725 0-73.728-33.003-73.728-73.728v-221.312c0-40.725 33.003-73.728 73.728-73.728h221.312c40.725 0 73.749 33.003 73.749 73.728v221.312zM341.589 617.685c0-4.843-3.925-8.747-8.768-8.747h-220.288c-4.843 0-8.768 3.925-8.768 8.747v220.309c0 4.843 3.925 8.747 8.768 8.747h220.309c4.843 0 8.768-3.925 8.768-8.747v-220.309zM151.936 798.592h141.483v-141.483h-141.483v141.483zM407.808 261.269c0 40.704-33.003 73.707-73.749 73.707h-221.291c-40.725 0-73.728-33.003-73.728-73.707v-221.333c0-40.725 33.003-73.728 73.728-73.728h221.312c40.725 0 73.749 33.003 73.749 73.728v221.333zM341.589 40.043c0-4.821-3.584-9.109-8.427-9.109h-220.715c-4.843 0-8.683 4.288-8.683 9.109v220.757c0 4.821 3.84 9.472 8.683 9.472h220.736c4.821 0 8.427-4.651 8.427-9.472v-220.757zM151.936 222.101h141.483v-142.997h-141.483v142.997zM981.291 837.739c0 40.725-33.003 73.728-73.728 73.728h-221.312c-40.725 0-73.749-33.003-73.749-73.728v-221.312c0-40.725 33.003-73.728 73.749-73.728h221.312c40.725 0 73.728 33.003 73.728 73.728v221.312zM915.072 617.685c0-4.843-3.925-8.747-8.768-8.747h-220.309c-4.843 0-8.747 3.925-8.747 8.747v220.309c0 4.843 3.925 8.747 8.747 8.747h220.309c4.843 0 8.768-3.925 8.768-8.747v-220.309zM725.397 798.592h142.997v-141.483h-142.997v141.483zM123.029 500.565c-10.645 0-19.264-8.619-19.264-19.264v-48.789c0-10.645 8.619-19.264 19.264-19.264h45.461v-1.792c0-10.645 8.619-19.264 19.264-19.264h110.187v-1.813c0-10.645 8.619-19.264 19.264-19.264h48.789c10.645 0 19.264 8.619 19.264 19.264v47.275c0 10.645-8.619 19.264-19.264 19.264h-24.384v24.405c0 10.645-8.619 19.264-19.264 19.264h-26.24c-10.645 0-19.264-8.619-19.264-19.264v-24.405h-85.76v24.405c0 10.645-8.619 19.264-19.264 19.264h-48.789zM481.557 595.072c0-10.645 8.619-19.264 19.264-19.264h69.845c10.645 0 19.264 8.619 19.264 19.264v48.789c0 10.645-8.619 19.264-19.264 19.264h-24.384v150.528h3.307c10.645 0 19.264 8.619 19.264 19.264v26.176c0 10.645-8.619 19.264-19.264 19.264h-92.416c-10.645 0-19.264-8.619-19.264-19.264v-26.197c0-10.645 8.619-19.264 19.264-19.264h24.384v-69.248h-24.384c-10.645 0-19.264-8.619-19.264-19.264v-3.627c0-10.645 8.619-19.264 19.264-19.264h24.384v-107.157zM537.259 524.949c0 10.645-8.619 19.264-19.264 19.264h-48.789c-10.645 0-19.264-8.619-19.264-19.264v-48.789c0-10.645 8.619-19.264 19.264-19.264h48.789c10.645 0 19.264 8.619 19.264 19.264v48.789zM883.456 304.875h-24.384c-10.645 0-19.264-8.619-19.264-19.264v-90.923c0-10.645 8.619-19.264 19.264-19.264h92.437c10.645 0 19.264 8.619 19.264 19.264v286.613c0 10.645-8.619 19.264-19.264 19.264h-48.789c-10.645 0-19.264-8.619-19.264-19.264v-176.427zM665.216 375.616h3.307c10.645 0 19.264 8.619 19.264 19.264v47.275c0 10.645-8.619 19.264-19.264 19.264h-48.789c-10.645 0-19.264-8.619-19.264-19.264v-24.405h-89.109c-10.645 0-19.264-8.619-19.264-19.264v-112c0-10.645 8.619-19.264 19.264-19.264h134.592c10.645 0 19.264 8.619 19.264 19.264v89.131zM839.808 477.973v24.405c0 10.645-8.619 19.264-19.264 19.264h-5.12c-10.645 0-19.264-8.619-19.264-19.264v-24.405h-45.461c-10.645 0-19.264-8.619-19.264-19.264v-68.352c0-10.645 8.619-19.264 19.264-19.264h69.845c10.645 0 19.264 8.619 19.264 19.264v87.616zM710.357 240.171h-45.461c-10.645 0-19.264-8.619-19.264-19.264v-26.219c0-10.645 8.619-19.264 19.264-19.264h45.461v-168.683c0-10.645 8.619-19.264 19.264-19.264h47.275c10.645 0 19.264 8.619 19.264 19.264v301.44c0 10.645-8.619 19.264-19.264 19.264h-47.275c-10.645 0-19.264-8.619-19.264-19.264v-68.011zM493.611 6.763c0-10.645 8.619-19.264 19.264-19.264h69.845c10.645 0 19.264 8.619 19.264 19.264v193.067c0 10.645-8.619 19.264-19.264 19.264h-69.845c-10.645 0-19.264-8.619-19.264-19.264v-193.067zM824.747 6.763c0-10.645 8.619-19.264 19.264-19.264h63.851c10.645 0 19.264 8.619 19.264 19.264v47.275c0 10.645-8.619 19.264-19.264 19.264h-63.851c-10.645 0-19.264-8.619-19.264-19.264v-47.275z" />
<glyph unicode="&#xe93e;" glyph-name="Tourism-Icons_tag" d="M974.699 152.299c27.221 16.832 35.648 52.523 18.816 79.765l-325.717 526.976c-8.853 14.336-23.509 24.085-40.128 26.752l-229.973 36.821c-35.755 48.213-83.349 96.789-143.296 113.429-118.4 32.853-246.677-37.973-228.907-151.381 11.669-74.475 90.069-141.227 243.883-202.944l-6.784-21.589c-5.056-16.064-2.859-33.536 5.995-47.872l325.739-526.976c16.832-27.221 52.544-35.648 79.765-18.816l300.608 185.835zM88.96 792.811c-11.285 49.173 66.859 105.259 146.603 82.069 40.448-11.776 75.072-44.288 102.848-79.659l-49.771-152.235c-163.52 66.389-193.344 122.283-199.68 149.824zM482.283 612.864c-35.712-22.059-82.539-11.008-104.619 24.683-17.536 28.373-13.867 63.595 6.187 88.021 18.261-33.28 28.331-58.88 28.587-59.563 6.357-16.469 24.789-24.661 41.344-18.368 16.469 6.336 24.725 24.832 18.389 41.323-1.131 2.944-11.605 29.504-30.528 64.277 25.664 0.192 50.816-12.352 65.301-35.776 22.080-35.691 11.029-82.539-24.661-104.597zM697.856 81.493c-6.997-4.331-14.741-6.379-22.4-6.379-14.293 0-28.267 7.189-36.331 20.245l-145.813 235.904c-12.395 20.053-6.187 46.336 13.845 58.731 20.053 12.395 46.315 6.187 58.731-13.845l145.813-235.904c12.416-20.075 6.208-46.357-13.845-58.752zM861.184 182.443c-6.997-4.331-14.741-6.379-22.4-6.379-14.293 0-28.267 7.189-36.331 20.245l-213.12 344.789c-12.395 20.053-6.187 46.336 13.845 58.731 20.032 12.416 46.336 6.187 58.731-13.845l213.12-344.789c12.416-20.075 6.208-46.357-13.845-58.752z" />
<glyph unicode="&#xe93f;" glyph-name="Tourism-Icons_ticket" d="M826.944 776.64h-629.589c-97.131 0-176.021-79.125-176.021-176.213v-363.2c0-97.109 78.891-176.213 176.021-176.213h629.589c97.131 0 176.021 79.104 176.021 176.213v363.2c0 97.088-78.912 176.213-176.021 176.213zM896.875 238.357c0-38.485-31.189-69.696-69.717-69.696h-630.037c-38.528 0-69.717 31.211-69.717 69.696v362.496c0 38.507 31.189 69.717 69.717 69.717h630.037c38.528 0 69.717-31.211 69.717-69.717v-362.496zM396.629 500.395c0-53.385-43.277-96.661-96.661-96.661s-96.661 43.277-96.661 96.661c0 53.385 43.277 96.661 96.661 96.661s96.661-43.277 96.661-96.661zM787.243 610.389h-270.656c-23.531 0-42.581-19.243-42.581-42.752s19.072-42.731 42.581-42.731h270.677c23.509 0 42.581 19.221 42.581 42.731s-19.093 42.752-42.603 42.752zM787.243 461.568h-270.656c-23.531 0-42.581-19.243-42.581-42.752s19.072-42.752 42.581-42.752h270.677c23.509 0 42.581 19.243 42.581 42.752s-19.093 42.752-42.603 42.752zM787.243 312.747h-541.333c-23.509 0-42.581-19.221-42.581-42.731s19.093-42.752 42.581-42.752h541.333c23.509 0 42.581 19.243 42.581 42.752s-19.072 42.731-42.581 42.731z" />
</font>
</defs>
</svg>
